<svg width="26" height="26" viewBox="0 0 26 26" fill="none" xmlns="http://www.w3.org/2000/svg">
<path d="M19.4567 9.40453L21.0676 19.1383C21.1413 19.5792 21.1085 20.0313 20.9721 20.457C20.8357 20.8827 20.5995 21.2696 20.2833 21.5855L18.8479 23.0209L15.8562 13.0044M12.9957 10.1607L2.99219 7.16744L4.4276 5.73203C4.74381 5.41599 5.13083 5.17993 5.55654 5.04343C5.98225 4.90693 6.43437 4.87392 6.8754 4.94715L16.4992 6.66261" stroke="white" stroke-linecap="round" stroke-linejoin="round"/>
<path d="M22.8838 4.25856L22.8205 4.02401C22.7653 3.81936 22.6579 3.63256 22.5088 3.48187C22.3597 3.33119 22.1741 3.22179 21.97 3.16439L21.7377 3.10101C21.3814 2.97303 20.9968 2.9455 20.6259 3.02145C20.255 3.0974 19.9122 3.2739 19.6349 3.53164L8.05895 15.0897L5.51529 14.7523L3.4082 16.8832L7.4057 18.6084L9.05779 22.7034L11.2125 20.5259L10.9125 17.9465L22.4684 6.39381C22.7228 6.10789 22.8957 5.75883 22.9688 5.38316C23.042 5.0075 23.0123 4.61907 22.8838 4.25856Z" stroke="white" stroke-linecap="round" stroke-linejoin="round"/>
</svg>
