<svg width="15" height="18" viewBox="0 0 15 18" fill="none" xmlns="http://www.w3.org/2000/svg">
    <path
        d="M14.079 12.6262C13.6843 10.1726 12.5565 7.91129 10.8562 6.16425C10.484 5.787 10.2982 5.59875 9.88712 5.42475C9.476 5.25 9.12248 5.25 8.41616 5.25H6.86384C6.15752 5.25 5.804 5.25 5.39288 5.42475C4.98248 5.59875 4.79528 5.787 4.42376 6.16425C2.72345 7.91129 1.59567 10.1726 1.20104 12.6262C0.850398 14.8297 2.8016 16.5 4.98176 16.5H10.2982C12.4791 16.5 14.431 14.8297 14.0782 12.6262"
        stroke="#835415" stroke-width="1.125" stroke-linecap="round" stroke-linejoin="round" />
    <path
        d="M8.81143 9.68925C8.65591 9.09 7.86319 8.55 6.91207 8.95425C5.96095 9.3585 5.81047 10.6582 7.24831 10.797C7.89919 10.8592 8.32255 10.7242 8.71063 11.106C9.09943 11.487 9.17143 12.5482 8.17855 12.834C7.18711 13.1197 6.20431 12.6735 6.09775 12.039M7.52623 8.244V8.81475M7.52623 12.9218V13.4948M4.22503 3.33225C4.07599 3.10725 3.86071 2.80125 4.30567 2.73225C4.76287 2.66025 5.23735 2.98575 5.70247 2.97975C6.12223 2.973 6.33607 2.77875 6.56647 2.50125C6.80839 2.2095 7.18279 1.5 7.63999 1.5C8.09719 1.5 8.47159 2.2095 8.71351 2.50125C8.94391 2.77875 9.15775 2.97375 9.57751 2.979C10.0426 2.9865 10.5171 2.66025 10.9743 2.7315C11.4193 2.80125 11.204 3.1065 11.055 3.3315L10.3839 4.35075C10.0959 4.78575 9.95263 5.00325 9.65167 5.127C9.35071 5.25075 8.96263 5.25 8.18575 5.25H7.09423C6.31663 5.25 5.92855 5.25 5.62831 5.127C5.32807 5.004 5.18407 4.785 4.89607 4.35L4.22503 3.33225Z"
        stroke="#835415" stroke-width="1.125" stroke-linecap="round" stroke-linejoin="round" />
</svg>
