<svg width="22" height="22" viewBox="0 0 22 22" fill="none" xmlns="http://www.w3.org/2000/svg">
<path fill-rule="evenodd" clip-rule="evenodd" d="M16.383 5.5779L14.1258 6.25624L15.6291 10.1878C16.535 9.96591 17.4915 10.0976 18.3037 10.556C19.116 11.0145 19.723 11.7653 20.0012 12.6555C20.2794 13.5458 20.2079 14.5086 19.8012 15.3479C19.3945 16.1873 18.6833 16.8402 17.8122 17.1736C16.9411 17.507 15.9757 17.4959 15.1125 17.1426C14.2493 16.7893 13.5532 16.1203 13.1659 15.2718C12.7786 14.4233 12.7291 13.4591 13.0277 12.5755C13.3263 11.6919 13.9504 10.9552 14.7729 10.5155L14.0176 8.54011L11.4133 13.9494C11.3758 14.0271 11.3171 14.0926 11.2439 14.1384C11.1708 14.1842 11.0862 14.2085 10.9999 14.2083H9.13817C9.02052 15.1329 8.55523 15.978 7.83686 16.5719C7.11849 17.1657 6.20096 17.4637 5.27074 17.4054C4.34052 17.347 3.46743 16.9366 2.82893 16.2576C2.19042 15.5787 1.83441 14.682 1.83325 13.75C1.83256 12.8168 2.1877 11.9185 2.82631 11.238C3.46493 10.5576 4.33896 10.1462 5.27031 10.0878C6.20167 10.0293 7.12026 10.3282 7.83892 10.9235C8.55757 11.5188 9.02222 12.3657 9.13817 13.2917H10.284L8.04734 7.02899C8.02972 6.97955 8.02073 6.92746 8.02075 6.87499H7.33325C7.2117 6.87499 7.09512 6.8267 7.00916 6.74074C6.92321 6.65479 6.87492 6.53821 6.87492 6.41665C6.87492 6.2951 6.92321 6.17852 7.00916 6.09256C7.09512 6.00661 7.2117 5.95832 7.33325 5.95832H9.39575C9.51731 5.95832 9.63389 6.00661 9.71984 6.09256C9.8058 6.17852 9.85409 6.2951 9.85409 6.41665C9.85409 6.53821 9.8058 6.65479 9.71984 6.74074C9.63389 6.8267 9.51731 6.87499 9.39575 6.87499H8.96584L9.81009 9.23861L13.535 7.27832L13.0927 6.12195C13.0702 6.06306 13.06 6.00016 13.0629 5.93718C13.0658 5.87421 13.0817 5.8125 13.1095 5.75594C13.1374 5.69937 13.1766 5.64915 13.2247 5.60842C13.2728 5.5677 13.3288 5.53733 13.3892 5.51924L16.1195 4.7002L16.383 5.5779ZM10.1213 10.1108L11.0251 12.6408L12.9639 8.61482L10.1213 10.1108ZM16.0718 13.9136L15.1034 11.3804C14.5095 11.7308 14.0689 12.2915 13.8689 12.9514C13.669 13.6113 13.7242 14.3222 14.0237 14.9433C14.3232 15.5644 14.845 16.0503 15.4859 16.3048C16.1268 16.5593 16.8398 16.5637 17.4838 16.3172C18.1278 16.0707 18.6556 15.5913 18.9628 14.974C19.27 14.3566 19.334 13.6464 19.1423 12.9841C18.9505 12.3218 18.5169 11.7557 17.9274 11.3979C17.3379 11.0402 16.6356 10.917 15.9595 11.0527L16.928 13.5864C16.9694 13.6995 16.9647 13.8243 16.9148 13.9339C16.8648 14.0436 16.7738 14.1291 16.6613 14.1721C16.5488 14.2151 16.4238 14.2121 16.3135 14.1637C16.2032 14.1154 16.1164 14.0255 16.0718 13.9136ZM8.21188 13.2917H5.49992C5.37836 13.2917 5.26178 13.3399 5.17583 13.4259C5.08987 13.5119 5.04159 13.6284 5.04159 13.75C5.04159 13.8715 5.08987 13.9881 5.17583 14.0741C5.26178 14.16 5.37836 14.2083 5.49992 14.2083H8.21188C8.09512 14.8867 7.72829 15.4966 7.1838 15.9177C6.6393 16.3389 5.95672 16.5405 5.27079 16.483C4.58486 16.4254 3.94544 16.1128 3.47874 15.6068C3.01204 15.1009 2.75199 14.4383 2.74992 13.75C2.74929 13.06 3.00805 12.395 3.47486 11.8869C3.94166 11.3788 4.58241 11.0648 5.26996 11.0071C5.95752 10.9494 6.64164 11.1523 7.18659 11.5755C7.73155 11.9987 8.09751 12.6112 8.21188 13.2917Z" fill="#835415"/>
</svg>
