<svg width="32" height="32" viewBox="0 0 32 32" fill="none" xmlns="http://www.w3.org/2000/svg">
<path d="M24 25.3333C24 26.3942 23.5786 27.4116 22.8285 28.1618C22.0783 28.9119 21.0609 29.3333 20 29.3333H10.6667C9.60584 29.3333 8.58843 28.9119 7.83828 28.1618C7.08813 27.4116 6.66671 26.3942 6.66671 25.3333V9.33333H5.33337V5.33333H11.3334L12.6667 4H18L19.3334 5.33333H25.3334V9.33333H24V25.3333ZM8.00004 9.33333V25.3333C8.00004 26.0406 8.28099 26.7189 8.78109 27.2189C9.28119 27.719 9.95946 28 10.6667 28H20C20.7073 28 21.3856 27.719 21.8857 27.2189C22.3858 26.7189 22.6667 26.0406 22.6667 25.3333V9.33333H8.00004ZM24 8V6.66667H18.6667L17.3334 5.33333H13.3334L12 6.66667H6.66671V8H24ZM10.6667 12H12V25.3333H10.6667V12ZM18.6667 12H20V25.3333H18.6667V12Z" fill="#BA1B1B"/>
</svg>
