<svg width="26" height="26" viewBox="0 0 26 26" fill="none" xmlns="http://www.w3.org/2000/svg">
<path d="M20.2095 20.8598H21.6666V11.7165C21.5637 10.9148 21.2008 7.58356 20.8541 5.88814C20.8171 5.48834 20.7011 5.09986 20.5128 4.74523C20.1458 4.24943 19.6409 3.87265 19.0612 3.66189C18.0359 3.19527 16.9544 2.86388 15.8437 2.67606C14.9046 2.51337 13.953 2.43362 12.9999 2.43773C12.0414 2.43267 11.0844 2.51242 10.1399 2.67606C9.02924 2.86388 7.94768 3.19527 6.92242 3.66189C6.34267 3.87265 5.83779 4.24943 5.47075 4.74523C5.28248 5.09986 5.16649 5.48834 5.1295 5.88814C4.78284 7.60523 4.41992 10.9148 4.33325 11.7165V20.8598H5.79034M20.2095 20.8598V22.3169C20.2207 22.487 20.1969 22.6577 20.1395 22.8183C20.0822 22.9788 19.9924 23.1259 19.8759 23.2504C19.7593 23.3749 19.6185 23.4741 19.462 23.542C19.3056 23.6098 19.1369 23.6448 18.9664 23.6448C18.7959 23.6448 18.6272 23.6098 18.4707 23.542C18.3143 23.4741 18.1734 23.3749 18.0569 23.2504C17.9403 23.1259 17.8506 22.9788 17.7932 22.8183C17.7358 22.6577 17.712 22.487 17.7233 22.3169V20.8598H8.27659V22.3169C8.28782 22.487 8.26401 22.6577 8.20662 22.8183C8.14924 22.9788 8.0595 23.1259 7.94296 23.2504C7.82643 23.3749 7.68558 23.4741 7.52913 23.542C7.37269 23.6098 7.20398 23.6448 7.03346 23.6448C6.86294 23.6448 6.69423 23.6098 6.53779 23.542C6.38135 23.4741 6.24049 23.3749 6.12396 23.2504C6.00742 23.1259 5.91768 22.9788 5.8603 22.8183C5.80291 22.6577 5.7791 22.487 5.79034 22.3169V20.8598M20.2095 20.8598H5.79034M8.46617 4.59356H17.5012M7.29075 6.14814C7.11045 6.15419 6.93811 6.22386 6.80426 6.34482C6.67042 6.46577 6.58371 6.6302 6.5595 6.80898L5.87159 11.8031C5.84336 12.0003 5.89325 12.2006 6.01062 12.3615C6.128 12.5224 6.30357 12.6311 6.49992 12.6644H19.3699C19.5702 12.6645 19.7626 12.5864 19.9063 12.4468C20.0499 12.3072 20.1334 12.1171 20.1391 11.9169C20.1424 11.8827 20.1424 11.8482 20.1391 11.814L19.4512 6.81981C19.4262 6.6365 19.3356 6.46847 19.1962 6.34693C19.0567 6.22539 18.8778 6.1586 18.6928 6.15898H7.31784L7.29075 6.14814ZM7.04159 15.6056C6.78294 15.6046 6.52981 15.6804 6.3143 15.8234C6.0988 15.9664 5.93064 16.1702 5.83117 16.409C5.73169 16.6477 5.70539 16.9107 5.75558 17.1644C5.80578 17.4181 5.93022 17.6512 6.11311 17.8341C6.296 18.017 6.5291 18.1414 6.78283 18.1916C7.03656 18.2418 7.29948 18.2155 7.53824 18.1161C7.77699 18.0166 7.98081 17.8484 8.12384 17.6329C8.26687 17.4174 8.34266 17.1643 8.34159 16.9056C8.34159 16.5609 8.20462 16.2302 7.96082 15.9864C7.71703 15.7426 7.38637 15.6056 7.04159 15.6056ZM18.9583 15.6056C18.6998 15.6056 18.4472 15.6823 18.2324 15.826C18.0177 15.9697 17.8503 16.1739 17.7517 16.4128C17.6531 16.6516 17.6275 16.9144 17.6783 17.1677C17.7291 17.4211 17.854 17.6537 18.0371 17.836C18.2202 18.0184 18.4533 18.1423 18.7069 18.192C18.9605 18.2418 19.2231 18.2152 19.4616 18.1155C19.7 18.0159 19.9035 17.8477 20.0463 17.6324C20.1891 17.417 20.2647 17.1641 20.2637 16.9056C20.2644 16.7343 20.2311 16.5644 20.1657 16.406C20.1003 16.2476 20.004 16.1038 19.8826 15.9829C19.7612 15.8619 19.6169 15.7663 19.4583 15.7016C19.2996 15.6368 19.1296 15.6042 18.9583 15.6056Z" stroke="white" stroke-linecap="round" stroke-linejoin="round"/>
</svg>
