<svg width="60" height="60" viewBox="0 0 60 60" fill="none" xmlns="http://www.w3.org/2000/svg">
<g clip-path="url(#clip0_509_4244)">
<path d="M53.3334 13.3332H41.1667L39.4 8.79984C39.1583 8.17339 38.733 7.63455 38.1799 7.25389C37.6267 6.87322 36.9715 6.66849 36.3 6.66651H23.7C23.0257 6.66513 22.3669 6.86829 21.8104 7.24917C21.254 7.63005 20.8261 8.17074 20.5834 8.79984L18.8334 13.3332H6.66671C5.78265 13.3332 4.93481 13.6844 4.30968 14.3095C3.68456 14.9346 3.33337 15.7825 3.33337 16.6665V49.9998C3.33337 50.8839 3.68456 51.7317 4.30968 52.3569C4.93481 52.982 5.78265 53.3332 6.66671 53.3332H53.3334C54.2174 53.3332 55.0653 52.982 55.6904 52.3569C56.3155 51.7317 56.6667 50.8839 56.6667 49.9998V16.6665C56.6667 15.7825 56.3155 14.9346 55.6904 14.3095C55.0653 13.6844 54.2174 13.3332 53.3334 13.3332ZM53.3334 49.9998H6.66671V16.6665H21.1167L23.7 9.99984H36.3L38.8834 16.6665H53.3334V49.9998Z" fill="#FFF8F4"/>
<path d="M15 31.6665C15 34.6332 15.8797 37.5333 17.528 40.0001C19.1762 42.4668 21.5189 44.3894 24.2597 45.5247C27.0006 46.66 30.0166 46.9571 32.9264 46.3783C35.8361 45.7995 38.5088 44.3709 40.6066 42.2731C42.7044 40.1753 44.133 37.5026 44.7118 34.5929C45.2906 31.6831 44.9935 28.6671 43.8582 25.9263C42.7229 23.1854 40.8003 20.8427 38.3336 19.1945C35.8668 17.5462 32.9667 16.6665 30 16.6665C26.0218 16.6665 22.2064 18.2469 19.3934 21.0599C16.5804 23.8729 15 27.6883 15 31.6665ZM42.3333 31.6665C42.3333 34.1058 41.61 36.4903 40.2548 38.5185C38.8996 40.5467 36.9734 42.1275 34.7198 43.061C32.4661 43.9945 29.9863 44.2387 27.5939 43.7629C25.2015 43.287 23.0039 42.1123 21.279 40.3875C19.5542 38.6626 18.3795 36.465 17.9036 34.0726C17.4278 31.6802 17.672 29.2004 18.6055 26.9467C19.539 24.6931 21.1198 22.7669 23.148 21.4117C25.1762 20.0565 27.5607 19.3332 30 19.3332C33.2696 19.3376 36.4041 20.6384 38.7161 22.9504C41.0281 25.2624 42.3289 28.3969 42.3333 31.6665Z" fill="#FFF8F4"/>
<path d="M15.6166 21.3831C15.6166 21.0295 15.4761 20.6904 15.2261 20.4403C14.976 20.1903 14.6369 20.0498 14.2833 20.0498H10.2833C9.92966 20.0498 9.59052 20.1903 9.34048 20.4403C9.09043 20.6904 8.94995 21.0295 8.94995 21.3831C8.94995 21.7368 9.09043 22.0759 9.34048 22.3259C9.59052 22.576 9.92966 22.7165 10.2833 22.7165H14.2833C14.6369 22.7165 14.976 22.576 15.2261 22.3259C15.4761 22.0759 15.6166 21.7368 15.6166 21.3831Z" fill="#FFF8F4"/>
<path d="M20.5666 31.6668C20.5854 33.4246 21.1028 35.1409 22.0588 36.6162C23.0147 38.0914 24.3699 39.2649 25.9666 40.0001L27.3833 37.7168C26.429 37.3972 25.5594 36.8656 24.8397 36.162C24.1201 35.4584 23.5691 34.601 23.2281 33.6541C22.8871 32.7072 22.7649 31.6954 22.8706 30.6945C22.9764 29.6936 23.3074 28.7297 23.8389 27.875C24.3703 27.0203 25.0884 26.297 25.9392 25.7594C26.79 25.2218 27.7516 24.8838 28.7516 24.7707C29.7517 24.6577 30.7644 24.7725 31.7138 25.1067C32.6631 25.4408 33.5245 25.9856 34.2333 26.7001L35.6666 24.4001C34.3022 23.2946 32.6517 22.5996 30.9075 22.396C29.1633 22.1924 27.3971 22.4886 25.8147 23.2501C24.2323 24.0116 22.8989 25.207 21.9698 26.6972C21.0406 28.1873 20.554 29.9108 20.5666 31.6668Z" fill="#FFF8F4"/>
</g>
<defs>
<clipPath id="clip0_509_4244">
<rect width="60" height="60" fill="white"/>
</clipPath>
</defs>
</svg>
