<svg width="25" height="24" viewBox="0 0 25 24" fill="none" xmlns="http://www.w3.org/2000/svg">
    <g clip-path="url(#clip0_524_1935)">
        <path
            d="M8.5 3.5C8.10218 3.5 7.72064 3.65804 7.43934 3.93934C7.15804 4.22064 7 4.60218 7 5C7 5.39782 7.15804 5.77936 7.43934 6.06066C7.72064 6.34196 8.10218 6.5 8.5 6.5C8.89782 6.5 9.27936 6.34196 9.56066 6.06066C9.84196 5.77936 10 5.39782 10 5C10 4.60218 9.84196 4.22064 9.56066 3.93934C9.27936 3.65804 8.89782 3.5 8.5 3.5ZM5.5 5C5.5 4.20435 5.81607 3.44129 6.37868 2.87868C6.94129 2.31607 7.70435 2 8.5 2C9.29565 2 10.0587 2.31607 10.6213 2.87868C11.1839 3.44129 11.5 4.20435 11.5 5C11.5 5.79565 11.1839 6.55871 10.6213 7.12132C10.0587 7.68393 9.29565 8 8.5 8C7.70435 8 6.94129 7.68393 6.37868 7.12132C5.81607 6.55871 5.5 5.79565 5.5 5ZM4.768 9C3.79 9 3 9.791 3 10.768V11.128C3 11.335 3 12.536 3.7 13.703C4.248 14.613 5.177 15.43 6.675 15.796C6.88035 15.2507 7.25184 14.7837 7.737 14.461C6.134 14.29 5.376 13.578 4.987 12.931C4.503 12.125 4.5 11.267 4.5 11.125V10.768C4.5 10.62 4.62 10.5 4.768 10.5H9.03C9.09675 9.97135 9.26844 9.46137 9.535 9H4.768ZM16.465 9C16.726 9.452 16.902 9.959 16.969 10.5H21.232C21.38 10.5 21.5 10.62 21.5 10.768V11.125C21.5 11.267 21.497 12.125 21.013 12.93C20.624 13.578 19.866 14.29 18.263 14.461C18.743 14.781 19.119 15.247 19.325 15.796C20.823 15.43 21.752 14.613 22.299 13.703C23 12.536 23 11.336 23 11.127V10.767C23 9.792 22.209 9 21.232 9H16.465ZM16 5C16 4.60218 16.158 4.22064 16.4393 3.93934C16.7206 3.65804 17.1022 3.5 17.5 3.5C17.8978 3.5 18.2794 3.65804 18.5607 3.93934C18.842 4.22064 19 4.60218 19 5C19 5.39782 18.842 5.77936 18.5607 6.06066C18.2794 6.34196 17.8978 6.5 17.5 6.5C17.1022 6.5 16.7206 6.34196 16.4393 6.06066C16.158 5.77936 16 5.39782 16 5ZM17.5 2C16.7044 2 15.9413 2.31607 15.3787 2.87868C14.8161 3.44129 14.5 4.20435 14.5 5C14.5 5.79565 14.8161 6.55871 15.3787 7.12132C15.9413 7.68393 16.7044 8 17.5 8C18.2956 8 19.0587 7.68393 19.6213 7.12132C20.1839 6.55871 20.5 5.79565 20.5 5C20.5 4.20435 20.1839 3.44129 19.6213 2.87868C19.0587 2.31607 18.2956 2 17.5 2ZM13 9.5C12.803 9.5 12.608 9.5388 12.426 9.61418C12.244 9.68956 12.0786 9.80005 11.9393 9.93934C11.8001 10.0786 11.6896 10.244 11.6142 10.426C11.5388 10.608 11.5 10.803 11.5 11C11.5 11.197 11.5388 11.392 11.6142 11.574C11.6896 11.756 11.8001 11.9214 11.9393 12.0607C12.0786 12.1999 12.244 12.3104 12.426 12.3858C12.608 12.4612 12.803 12.5 13 12.5C13.3978 12.5 13.7794 12.342 14.0607 12.0607C14.342 11.7794 14.5 11.3978 14.5 11C14.5 10.6022 14.342 10.2206 14.0607 9.93934C13.7794 9.65804 13.3978 9.5 13 9.5ZM10 11C10 10.2044 10.3161 9.44129 10.8787 8.87868C11.4413 8.31607 12.2044 8 13 8C13.7956 8 14.5587 8.31607 15.1213 8.87868C15.6839 9.44129 16 10.2044 16 11C16 11.7956 15.6839 12.5587 15.1213 13.1213C14.5587 13.6839 13.7956 14 13 14C12.2044 14 11.4413 13.6839 10.8787 13.1213C10.3161 12.5587 10 11.7956 10 11ZM7.5 16.768C7.5 15.79 8.291 15 9.268 15H16.732C17.709 15 18.5 15.791 18.5 16.768V17.128C18.5 17.335 18.5 18.536 17.8 19.703C17.057 20.937 15.613 22 13 22C10.387 22 8.942 20.937 8.2 19.703C7.5 18.536 7.5 17.336 7.5 17.127V16.768ZM9.268 16.5C9.19708 16.5005 9.12922 16.5289 9.07907 16.5791C9.02893 16.6292 9.00052 16.6971 9 16.768V17.125C9 17.267 9.003 18.125 9.487 18.93C9.933 19.673 10.864 20.5 13 20.5C15.136 20.5 16.067 19.673 16.513 18.93C16.997 18.125 17 17.267 17 17.125V16.768C16.9995 16.6971 16.9711 16.6292 16.9209 16.5791C16.8708 16.5289 16.8029 16.5005 16.732 16.5H9.268Z"
            fill="black" />
    </g>
    <defs>
        <clipPath id="clip0_524_1935">
            <rect width="24" height="24" fill="white" transform="translate(0.5)" />
        </clipPath>
    </defs>
</svg>
