<svg width="22" height="22" viewBox="0 0 22 22" fill="none" xmlns="http://www.w3.org/2000/svg">
<path d="M12.3338 6.83405C12.5274 6.64965 12.7852 6.54771 13.0526 6.54973C13.3201 6.55175 13.5762 6.65759 13.7671 6.8449C13.958 7.03221 14.0686 7.28635 14.0757 7.55369C14.0828 7.82103 13.9857 8.08067 13.805 8.2778L8.31875 15.1391C8.22442 15.2407 8.11056 15.3222 7.98398 15.3788C7.85741 15.4354 7.72073 15.4659 7.5821 15.4685C7.44347 15.471 7.30575 15.4456 7.17717 15.3937C7.04859 15.3419 6.93179 15.2646 6.83375 15.1666L3.1955 11.5283C3.09418 11.4339 3.01292 11.32 2.95655 11.1935C2.90019 11.067 2.86988 10.9305 2.86744 10.792C2.865 10.6536 2.89047 10.516 2.94233 10.3876C2.9942 10.2592 3.0714 10.1426 3.16933 10.0446C3.26725 9.9467 3.3839 9.8695 3.51231 9.81763C3.64071 9.76577 3.77825 9.7403 3.91672 9.74274C4.05519 9.74518 4.19174 9.77549 4.31824 9.83185C4.44474 9.88822 4.55859 9.96948 4.653 10.0708L7.53225 12.9487L12.3063 6.8643L12.3338 6.83405ZM11.0688 13.9016L12.3338 15.1666C12.4318 15.2644 12.5485 15.3415 12.6769 15.3932C12.8054 15.445 12.9429 15.4703 13.0814 15.4678C13.2199 15.4652 13.3564 15.4348 13.4828 15.3783C13.6093 15.3218 13.7231 15.2405 13.8174 15.1391L19.3064 8.2778C19.405 8.18046 19.483 8.06423 19.5356 7.93608C19.5883 7.80793 19.6147 7.67047 19.613 7.53192C19.6114 7.39337 19.5819 7.25656 19.5262 7.12968C19.4706 7.00279 19.3899 6.88842 19.2891 6.79339C19.1882 6.69837 19.0693 6.62465 18.9393 6.57662C18.8093 6.52859 18.671 6.50725 18.5326 6.51387C18.3942 6.52049 18.2585 6.55493 18.1337 6.61514C18.009 6.67535 17.8976 6.76009 17.8063 6.8643L13.0309 12.9487L12.364 12.2804L11.0688 13.9016Z" fill="black"/>
</svg>
