<svg width="38" height="38" viewBox="0 0 38 38" fill="none" xmlns="http://www.w3.org/2000/svg">
    <g clip-path="url(#clip0_335_2519)">
        <path
            d="M32.7941 -0.0917969C32.246 -0.0917969 31.7243 0.156665 31.2858 0.595126L30.2364 1.5992L36.4012 7.76397L37.4067 6.71459C38.2836 5.83766 38.2836 4.53105 37.4067 3.65413L34.3463 0.593665C33.9078 0.155203 33.3422 -0.0917969 32.7941 -0.0917969ZM29.2309 2.46736L27.632 3.79297L34.2089 10.3699L35.6704 8.90836L29.2309 2.46736ZM26.7638 4.84236L13.5661 17.9056C13.4993 17.9608 13.4377 18.0219 13.382 18.0883L13.2913 18.1336C13.1319 18.3163 13.0218 18.5366 12.9713 18.7737L11.1896 25.0306C11.1133 25.2782 11.1059 25.542 11.1683 25.7936C11.2307 26.0451 11.3605 26.2748 11.5438 26.4581C11.727 26.6413 11.9568 26.7712 12.2083 26.8335C12.4598 26.8959 12.7236 26.8886 12.9713 26.8122L19.2281 25.0306C19.4358 24.9813 19.6299 24.886 19.7958 24.7517C19.9618 24.6173 20.0954 24.4474 20.1869 24.2545L33.1595 11.4193L30.6924 8.76951V8.9069L28.9561 7.17059H29.0935L26.7638 4.84236ZM1.18834 5.84643C0.84974 5.91083 0.544798 6.09282 0.327374 6.36026C0.10995 6.62769 -0.00596499 6.96336 0.000104762 7.30797V36.5387C0.000104762 36.9264 0.154088 37.2981 0.42818 37.5722C0.702271 37.8463 1.07402 38.0003 1.46164 38.0003H30.6924C31.08 38.0003 31.4518 37.8463 31.7259 37.5722C32 37.2981 32.1539 36.9264 32.1539 36.5387V20.4618C32.1539 20.0742 32 19.7024 31.7259 19.4284C31.4518 19.1543 31.08 19.0003 30.6924 19.0003C30.3048 19.0003 29.933 19.1543 29.6589 19.4284C29.3849 19.7024 29.2309 20.0742 29.2309 20.4618V35.0772H2.92318V8.76951H17.5386C17.9262 8.76951 18.2979 8.61553 18.572 8.34144C18.8461 8.06734 19.0001 7.6956 19.0001 7.30797C19.0001 6.92035 18.8461 6.5486 18.572 6.27451C18.2979 6.00042 17.9262 5.84643 17.5386 5.84643H1.46164C1.41587 5.84428 1.37003 5.84428 1.32426 5.84643C1.27849 5.84428 1.23264 5.84428 1.18687 5.84643H1.18834ZM15.5304 20.1885L17.54 20.3244L17.6774 22.5167L15.6678 23.1101L14.8917 22.3355L15.5304 20.1885Z"
            fill="#121F00" />
    </g>
    <defs>
        <clipPath id="clip0_335_2519">
            <rect width="38" height="38" fill="white" />
        </clipPath>
    </defs>
</svg>
