<svg width="46" height="46" viewBox="0 0 46 46" fill="none" xmlns="http://www.w3.org/2000/svg">
<path d="M36.5892 27.6789V36.1889C36.5887 37.393 36.1101 38.5476 35.2587 39.399C34.4073 40.2505 33.2527 40.729 32.0486 40.7295H9.81337C9.2149 40.7293 8.62237 40.6108 8.06984 40.3808C7.51731 40.1509 7.01567 39.814 6.59374 39.3896C6.1718 38.9651 5.8379 38.4615 5.6112 37.9076C5.38451 37.3538 5.2695 36.7606 5.27279 36.1621V13.9518C5.26922 13.3542 5.38429 12.7619 5.61131 12.2092C5.83833 11.6565 6.17279 11.1543 6.59531 10.7318C7.01783 10.3093 7.52001 9.9748 8.07274 9.74778C8.62547 9.52076 9.21776 9.4057 9.81529 9.40926H18.3234" stroke="#211A13" stroke-width="1.5" stroke-linecap="round" stroke-linejoin="round"/>
<path d="M36.5891 17.2408L28.7595 9.40929M13.1003 30.2895V26.1399C13.1042 25.4556 13.3763 24.7982 13.8574 24.3133L32.1271 6.04363C32.3698 5.79896 32.6585 5.60476 32.9766 5.47224C33.2947 5.33971 33.6359 5.27148 33.9805 5.27148C34.3251 5.27148 34.6663 5.33971 34.9844 5.47224C35.3025 5.60476 35.5912 5.79896 35.8339 6.04363L39.9567 10.1664C40.2018 10.4088 40.3964 10.6974 40.5292 11.0156C40.662 11.3337 40.7304 11.675 40.7304 12.0198C40.7304 12.3645 40.662 12.7059 40.5292 13.024C40.3964 13.3422 40.2018 13.6308 39.9567 13.8732L21.687 32.1429C21.2011 32.6252 20.545 32.8971 19.8604 32.9H15.7108C15.0185 32.9 14.3545 32.6249 13.8649 32.1354C13.3754 31.6458 13.1003 30.9818 13.1003 30.2895Z" stroke="#211A13" stroke-width="1.5" stroke-linecap="round" stroke-linejoin="round"/>
</svg>
