<svg width="35" height="30" viewBox="0 0 35 30" fill="none" xmlns="http://www.w3.org/2000/svg">
    <path
        d="M5.52632 0H29.4737C30.9394 0 32.345 0.632141 33.3814 1.75736C34.4178 2.88258 35 4.4087 35 6V24C35 25.5913 34.4178 27.1174 33.3814 28.2426C32.345 29.3679 30.9394 30 29.4737 30H5.52632C4.06065 30 2.65501 29.3679 1.61862 28.2426C0.582235 27.1174 0 25.5913 0 24V6C0 4.4087 0.582235 2.88258 1.61862 1.75736C2.65501 0.632141 4.06065 0 5.52632 0ZM5.52632 2C4.60526 2 3.79474 2.34 3.16842 2.94L17.5 13L31.8316 2.94C31.2053 2.34 30.3947 2 29.4737 2H5.52632ZM17.5 15.42L2.08158 4.56C1.93421 5 1.84211 5.5 1.84211 6V24C1.84211 25.0609 2.23026 26.0783 2.92119 26.8284C3.61211 27.5786 4.5492 28 5.52632 28H29.4737C30.4508 28 31.3879 27.5786 32.0788 26.8284C32.7697 26.0783 33.1579 25.0609 33.1579 24V6C33.1579 5.5 33.0658 5 32.9184 4.56L17.5 15.42Z"
        fill="black" />
</svg>
