<svg width="18" height="18" viewBox="0 0 18 18" fill="none" xmlns="http://www.w3.org/2000/svg">
    <path
        d="M8.62853 3.9375C5.99805 3.9375 3.29974 5.5234 1.17551 8.6952C1.11488 8.78673 1.08165 8.89493 1.08003 9.00612C1.07841 9.11731 1.10846 9.22651 1.1664 9.31992C2.79855 11.9813 5.46075 14.0625 8.62853 14.0625C11.7619 14.0625 14.4788 11.9749 16.1139 9.30762C16.1705 9.21604 16.2006 9.10943 16.2006 9.00053C16.2006 8.89162 16.1705 8.78502 16.1139 8.69344C14.475 6.05672 11.7383 3.9375 8.62853 3.9375Z"
        stroke="#835415" stroke-width="1.125" stroke-linecap="round" stroke-linejoin="round" />
    <path
        d="M8.64 11.8125C10.1312 11.8125 11.34 10.5533 11.34 9C11.34 7.4467 10.1312 6.1875 8.64 6.1875C7.14883 6.1875 5.94 7.4467 5.94 9C5.94 10.5533 7.14883 11.8125 8.64 11.8125Z"
        stroke="#835415" stroke-width="1.125" stroke-miterlimit="10" />
</svg>
