<svg width="18" height="18" viewBox="0 0 18 18" fill="none" xmlns="http://www.w3.org/2000/svg">
    <path
        d="M14.5152 3.45712C13.7508 2.66062 12.7373 2.17636 11.6591 2.0924C10.5809 2.00844 9.50961 2.33036 8.64 2.99962C7.72391 2.28984 6.58367 1.968 5.4489 2.09889C4.31413 2.22979 3.26912 2.8037 2.5243 3.70505C1.77948 4.60641 1.39019 5.76826 1.43482 6.95663C1.47944 8.145 1.95467 9.27162 2.7648 10.1096L8.1288 15.6971C8.19573 15.7674 8.27537 15.8232 8.3631 15.8613C8.45084 15.8994 8.54495 15.919 8.64 15.919C8.73505 15.919 8.82916 15.8994 8.91689 15.8613C9.00463 15.8232 9.08427 15.7674 9.1512 15.6971L14.5152 10.1096C14.9347 9.67291 15.2675 9.15437 15.4946 8.58364C15.7216 8.01291 15.8385 7.40116 15.8385 6.78337C15.8385 6.16557 15.7216 5.55382 15.4946 4.98309C15.2675 4.41236 14.9347 3.89382 14.5152 3.45712ZM13.5 9.05212L8.64 14.1071L3.78 9.05212C3.35173 8.60414 3.05998 8.0344 2.94136 7.41437C2.82275 6.79434 2.88254 6.15163 3.11324 5.56686C3.34395 4.98209 3.73529 4.48131 4.23817 4.12733C4.74105 3.77336 5.33308 3.58195 5.94 3.57712C6.7508 3.57919 7.52767 3.91637 8.1 4.51462C8.16693 4.58491 8.24657 4.64071 8.3343 4.67878C8.42204 4.71686 8.51615 4.73646 8.6112 4.73646C8.70625 4.73646 8.80036 4.71686 8.88809 4.67878C8.97583 4.64071 9.05547 4.58491 9.1224 4.51462C9.71159 3.98278 10.4728 3.70397 11.2518 3.73463C12.0309 3.76529 12.7697 4.10313 13.3187 4.67976C13.8677 5.25639 14.1859 6.02875 14.2088 6.84051C14.2318 7.65227 13.9578 8.44281 13.4424 9.05212H13.5Z"
        fill="#835415" />
</svg>
