<svg width="46" height="46" viewBox="0 0 46 46" fill="none" xmlns="http://www.w3.org/2000/svg">
<path d="M22.9272 38.3337C19.035 38.3337 15.6419 37.0623 12.7477 34.5195C9.85485 31.978 8.18096 28.7772 7.72607 24.917H9.66382C10.1852 28.2137 11.6872 30.9545 14.1699 33.1395C16.6526 35.3245 19.5717 36.417 22.9272 36.417C26.6647 36.417 29.8348 35.1156 32.4377 32.5127C35.0405 29.9099 36.3425 26.7391 36.3438 23.0003C36.3451 19.2615 35.043 16.0907 32.4377 13.4879C29.8323 10.8851 26.6621 9.58366 22.9272 9.58366C20.9428 9.58366 19.0785 10.0028 17.3343 10.841C15.5902 11.6779 14.0504 12.8311 12.7152 14.3006H17.4704V16.2172H9.51049V8.25924H11.4272V12.8362C12.9094 11.2096 14.6459 9.94208 16.6367 9.03358C18.6274 8.12508 20.7243 7.66955 22.9272 7.66699C25.0521 7.66699 27.0442 8.06694 28.9033 8.86683C30.7625 9.66671 32.3865 10.7618 33.7755 12.152C35.1644 13.5422 36.2595 15.1663 37.0607 17.0242C37.8618 18.882 38.2618 20.8741 38.2605 23.0003C38.2592 25.1265 37.8593 27.1186 37.0607 28.9765C36.262 30.8344 35.167 32.4584 33.7755 33.8487C32.384 35.2389 30.7599 36.3339 28.9033 37.1338C27.0467 37.9337 25.0547 38.3337 22.9272 38.3337ZM29.0682 30.3872L22.0781 23.399V13.417H23.9947V22.6017L30.4232 29.0302L29.0682 30.3872Z" fill="#211A13"/>
</svg>
