<svg width="13" height="13" viewBox="0 0 13 13" fill="none" xmlns="http://www.w3.org/2000/svg">
    <path
        d="M6.49998 7.53505C7.6949 7.53505 8.66665 6.56953 8.66665 5.38227C8.66665 4.19501 7.6949 3.22949 6.49998 3.22949C5.30506 3.22949 4.33331 4.19501 4.33331 5.38227C4.33331 6.56953 5.30506 7.53505 6.49998 7.53505ZM6.49998 4.30588C7.09744 4.30588 7.58331 4.78864 7.58331 5.38227C7.58331 5.9759 7.09744 6.45866 6.49998 6.45866C5.90252 6.45866 5.41665 5.9759 5.41665 5.38227C5.41665 4.78864 5.90252 4.30588 6.49998 4.30588Z"
        fill="black" />
    <path
        d="M6.18584 11.74C6.27758 11.8049 6.38739 11.8397 6.50001 11.8397C6.61262 11.8397 6.72244 11.8049 6.81417 11.74C6.97884 11.6242 10.849 8.8477 10.8333 5.38173C10.8333 3.00775 8.8893 1.07617 6.50001 1.07617C4.11072 1.07617 2.16667 3.00775 2.16667 5.37904C2.15097 8.8477 6.02117 11.6242 6.18584 11.74ZM6.50001 2.15256C8.29238 2.15256 9.75001 3.60084 9.75001 5.38442C9.76138 7.77293 7.37317 9.91763 6.50001 10.6211C5.62738 9.91709 3.23863 7.77185 3.25001 5.38173C3.25001 3.60084 4.70763 2.15256 6.50001 2.15256Z"
        fill="black" />
</svg>
