<svg width="40" height="40" viewBox="0 0 40 40" fill="none" xmlns="http://www.w3.org/2000/svg">
<path d="M20 23.3333C23.6767 23.3333 26.6667 20.3433 26.6667 16.6667C26.6667 12.99 23.6767 10 20 10C16.3233 10 13.3333 12.99 13.3333 16.6667C13.3333 20.3433 16.3233 23.3333 20 23.3333ZM20 13.3333C21.8383 13.3333 23.3333 14.8283 23.3333 16.6667C23.3333 18.505 21.8383 20 20 20C18.1617 20 16.6667 18.505 16.6667 16.6667C16.6667 14.8283 18.1617 13.3333 20 13.3333Z" fill="black"/>
<path d="M19.0333 36.3563C19.3156 36.5573 19.6535 36.6653 20 36.6653C20.3465 36.6653 20.6844 36.5573 20.9667 36.3563C21.4733 35.998 33.3817 27.3997 33.3333 16.6663C33.3333 9.31467 27.3517 3.33301 20 3.33301C12.6483 3.33301 6.66667 9.31467 6.66667 16.658C6.61833 27.3997 18.5267 35.998 19.0333 36.3563ZM20 6.66634C25.515 6.66634 30 11.1513 30 16.6747C30.035 24.0713 22.6867 30.713 20 32.8913C17.315 30.7113 9.965 24.068 10 16.6663C10 11.1513 14.485 6.66634 20 6.66634Z" fill="black"/>
</svg>
