<svg width="25" height="24" viewBox="0 0 25 24" fill="none" xmlns="http://www.w3.org/2000/svg">
    <g clip-path="url(#clip0_524_1919)">
        <path
            d="M9.5 7.5C9.69891 7.5 9.88968 7.57902 10.0303 7.71967C10.171 7.86032 10.25 8.05109 10.25 8.25V18.75C10.25 18.9489 10.171 19.1397 10.0303 19.2803C9.88968 19.421 9.69891 19.5 9.5 19.5C9.30109 19.5 9.11032 19.421 8.96967 19.2803C8.82902 19.1397 8.75 18.9489 8.75 18.75V8.25C8.75 8.05109 8.82902 7.86032 8.96967 7.71967C9.11032 7.57902 9.30109 7.5 9.5 7.5ZM12.5 7.5C12.6989 7.5 12.8897 7.57902 13.0303 7.71967C13.171 7.86032 13.25 8.05109 13.25 8.25V18.75C13.25 18.9489 13.171 19.1397 13.0303 19.2803C12.8897 19.421 12.6989 19.5 12.5 19.5C12.3011 19.5 12.1103 19.421 11.9697 19.2803C11.829 19.1397 11.75 18.9489 11.75 18.75V8.25C11.75 8.05109 11.829 7.86032 11.9697 7.71967C12.1103 7.57902 12.3011 7.5 12.5 7.5ZM15.5 7.5C15.6989 7.5 15.8897 7.57902 16.0303 7.71967C16.171 7.86032 16.25 8.05109 16.25 8.25V18.75C16.25 18.9489 16.171 19.1397 16.0303 19.2803C15.8897 19.421 15.6989 19.5 15.5 19.5C15.3011 19.5 15.1103 19.421 14.9697 19.2803C14.829 19.1397 14.75 18.9489 14.75 18.75V8.25C14.75 8.05109 14.829 7.86032 14.9697 7.71967C15.1103 7.57902 15.3011 7.5 15.5 7.5Z"
            fill="black" />
        <path
            d="M10.25 0C10.0511 0 9.86032 0.0790176 9.71967 0.21967C9.57902 0.360322 9.5 0.551088 9.5 0.75V4.5H8C7.20435 4.5 6.44129 4.81607 5.87868 5.37868C5.31607 5.94129 5 6.70435 5 7.5V19.5C4.99989 20.0358 5.14326 20.5618 5.41522 21.0234C5.68718 21.4851 6.07781 21.8654 6.5465 22.125C6.49017 22.3467 6.48513 22.5783 6.53176 22.8022C6.57839 23.0261 6.67546 23.2365 6.8156 23.4173C6.95574 23.598 7.13525 23.7445 7.34048 23.8455C7.54572 23.9464 7.77127 23.9993 8 24C8.39782 24 8.77936 23.842 9.06066 23.5607C9.34196 23.2794 9.5 22.8978 9.5 22.5H15.5C15.5006 22.7126 15.5464 22.9226 15.6344 23.1161C15.7223 23.3096 15.8503 23.4822 16.01 23.6225C16.1697 23.7628 16.3574 23.8675 16.5607 23.9298C16.7639 23.992 16.9781 24.0104 17.1889 23.9836C17.3998 23.9568 17.6026 23.8856 17.7838 23.7745C17.965 23.6634 18.1206 23.5151 18.2402 23.3394C18.3597 23.1636 18.4406 22.9645 18.4774 22.7551C18.5141 22.5458 18.506 22.331 18.4535 22.125C18.9222 21.8654 19.3128 21.4851 19.5848 21.0234C19.8567 20.5618 20.0001 20.0358 20 19.5V7.5C20 6.70435 19.6839 5.94129 19.1213 5.37868C18.5587 4.81607 17.7956 4.5 17 4.5H15.5V0.75C15.5 0.551088 15.421 0.360322 15.2803 0.21967C15.1397 0.0790176 14.9489 0 14.75 0L10.25 0ZM14 4.5H11V1.5H14V4.5ZM18.5 19.5C18.5 19.8978 18.342 20.2794 18.0607 20.5607C17.7794 20.842 17.3978 21 17 21H8C7.60218 21 7.22064 20.842 6.93934 20.5607C6.65804 20.2794 6.5 19.8978 6.5 19.5V7.5C6.5 7.10218 6.65804 6.72064 6.93934 6.43934C7.22064 6.15804 7.60218 6 8 6H17C17.3978 6 17.7794 6.15804 18.0607 6.43934C18.342 6.72064 18.5 7.10218 18.5 7.5V19.5Z"
            fill="black" />
    </g>
    <defs>
        <clipPath id="clip0_524_1919">
            <rect width="24" height="24" fill="white" transform="translate(0.5)" />
        </clipPath>
    </defs>
</svg>
