<svg width="42" height="42" viewBox="0 0 42 42" fill="none" xmlns="http://www.w3.org/2000/svg">
    <path
        d="M33.25 8.75H8.75C7.7835 8.75 7 9.5335 7 10.5V15.75C7 16.7165 7.7835 17.5 8.75 17.5H33.25C34.2165 17.5 35 16.7165 35 15.75V10.5C35 9.5335 34.2165 8.75 33.25 8.75Z"
        stroke="#211A13" stroke-linejoin="round" />
    <path
        d="M33.25 24.5H8.75C7.7835 24.5 7 25.2835 7 26.25V31.5C7 32.4665 7.7835 33.25 8.75 33.25H33.25C34.2165 33.25 35 32.4665 35 31.5V26.25C35 25.2835 34.2165 24.5 33.25 24.5Z"
        stroke="#211A13" stroke-linejoin="round" />
</svg>
