<svg width="20" height="20" viewBox="0 0 20 20" fill="none" xmlns="http://www.w3.org/2000/svg">
<g clip-path="url(#clip0_288_3378)">
<path d="M3.33337 0.416992H6.25004V0.833659C6.25004 1.38619 6.46953 1.9161 6.86023 2.3068C7.25094 2.6975 7.78084 2.91699 8.33337 2.91699M16.6667 0.416992H13.75V0.833659C13.75 1.10725 13.6962 1.37815 13.5915 1.63092C13.4868 1.88368 13.3333 2.11334 13.1398 2.3068C12.7491 2.6975 12.2192 2.91699 11.6667 2.91699M8.33337 5.41699H3.75004V5.62533L4.05421 6.15699C5.49322 8.67535 6.25011 11.5257 6.25004 14.4262V16.2503H8.75004M11.6667 5.41699H16.25V5.62533L15.9459 6.15783C14.5071 8.67569 13.7503 11.5254 13.75 14.4253V16.2503H11.25M8.75004 12.0837V18.3337C8.75004 18.6652 8.88174 18.9831 9.11616 19.2175C9.35058 19.452 9.66852 19.5837 10 19.5837C10.3316 19.5837 10.6495 19.452 10.8839 19.2175C11.1183 18.9831 11.25 18.6652 11.25 18.3337V12.0837H8.75004ZM10 6.25033C9.44751 6.25033 8.9176 6.03083 8.5269 5.64013C8.1362 5.24943 7.91671 4.71953 7.91671 4.16699C7.91671 3.61446 8.1362 3.08455 8.5269 2.69385C8.9176 2.30315 9.44751 2.08366 10 2.08366C10.5526 2.08366 11.0825 2.30315 11.4732 2.69385C11.8639 3.08455 12.0834 3.61446 12.0834 4.16699C12.0834 4.71953 11.8639 5.24943 11.4732 5.64013C11.0825 6.03083 10.5526 6.25033 10 6.25033Z" stroke="#835415"/>
</g>
<defs>
<clipPath id="clip0_288_3378">
<rect width="20" height="20" fill="white"/>
</clipPath>
</defs>
</svg>
