<svg width="35" height="35" viewBox="0 0 35 35" fill="none" xmlns="http://www.w3.org/2000/svg">
    <path
        d="M4.37497 25.5209H30.625C30.8321 25.5209 31.0051 25.5909 31.1441 25.7309C31.2832 25.8709 31.3532 26.0444 31.3541 26.2515C31.3551 26.4586 31.2851 26.6316 31.1441 26.7707C31.0032 26.9097 30.8301 26.9792 30.625 26.9792H4.37497C4.16789 26.9792 3.99483 26.9092 3.8558 26.7692C3.71678 26.6292 3.64678 26.4557 3.6458 26.2486C3.64483 26.0415 3.71483 25.8684 3.8558 25.7294C3.99678 25.5904 4.16983 25.5209 4.37497 25.5209ZM5.8333 15.7996L4.7483 17.713C4.66178 17.8714 4.53296 17.9721 4.36185 18.0148C4.18879 18.0586 4.02351 18.0372 3.86601 17.9507C3.70948 17.8632 3.60983 17.7334 3.56705 17.5613C3.52428 17.3873 3.54761 17.223 3.63705 17.0684L4.72205 15.155H2.55205C2.36539 15.155 2.21129 15.0943 2.08976 14.9727C1.96823 14.8512 1.90747 14.6976 1.90747 14.5119C1.90747 14.3262 1.96823 14.1721 2.08976 14.0496C2.21129 13.9271 2.36539 13.8659 2.55205 13.8659H4.72351L3.63705 12.0255C3.54761 11.8699 3.52428 11.7056 3.56705 11.5325C3.60983 11.3595 3.70997 11.2297 3.86747 11.1432C4.02497 11.0566 4.18976 11.0352 4.36185 11.079C4.53393 11.1227 4.66275 11.2234 4.7483 11.3809L5.8333 13.2198L6.9183 11.3809C7.00483 11.2224 7.13414 11.1213 7.30622 11.0775C7.4783 11.0338 7.64261 11.0557 7.79914 11.1432C7.95567 11.2307 8.0558 11.3605 8.09955 11.5325C8.1433 11.7046 8.11997 11.8689 8.02955 12.0255L6.94164 13.8659H9.11455C9.30122 13.8659 9.45532 13.9266 9.57685 14.0482C9.69837 14.1697 9.75914 14.3233 9.75914 14.509C9.75914 14.6947 9.69837 14.8488 9.57685 14.9713C9.45532 15.0938 9.30122 15.155 9.11455 15.155H6.9431L8.02955 17.0684C8.119 17.2239 8.14233 17.3882 8.09955 17.5613C8.05678 17.7343 7.95664 17.8641 7.79914 17.9507C7.64261 18.0372 7.4783 18.0586 7.30622 18.0148C7.13414 17.9721 7.00483 17.8714 6.9183 17.713L5.8333 15.7996ZM17.5 15.7996L16.415 17.713C16.3284 17.8714 16.1991 17.9721 16.0271 18.0148C15.855 18.0586 15.6907 18.0372 15.5341 17.9507C15.3766 17.8632 15.2765 17.7334 15.2337 17.5613C15.1909 17.3873 15.2143 17.223 15.3037 17.0684L16.3887 15.155H14.2187C14.0321 15.155 13.878 15.0943 13.7564 14.9727C13.6349 14.8512 13.5741 14.6976 13.5741 14.5119C13.5741 14.3262 13.6349 14.1721 13.7564 14.0496C13.878 13.9271 14.0321 13.8659 14.2187 13.8659H16.3902L15.3037 12.0255C15.2143 11.8699 15.1909 11.7056 15.2337 11.5325C15.2765 11.3595 15.3766 11.2297 15.5341 11.1432C15.6916 11.0566 15.8564 11.0352 16.0285 11.079C16.2006 11.1227 16.3294 11.2234 16.415 11.3809L17.5 13.2198L18.585 11.3809C18.6715 11.2224 18.8008 11.1213 18.9729 11.0775C19.145 11.0338 19.3093 11.0557 19.4658 11.1432C19.6233 11.2307 19.7234 11.3605 19.7662 11.5325C19.809 11.7046 19.7857 11.8689 19.6962 12.0255L18.6112 13.8659H20.7812C20.9679 13.8659 21.122 13.9266 21.2435 14.0482C21.365 14.1697 21.4258 14.3233 21.4258 14.509C21.4258 14.6947 21.365 14.8488 21.2435 14.9713C21.122 15.0938 20.9679 15.155 20.7812 15.155H18.6098L19.6962 17.0684C19.7857 17.2239 19.809 17.3882 19.7662 17.5613C19.7234 17.7343 19.6233 17.8641 19.4658 17.9507C19.3083 18.0372 19.1435 18.0586 18.9714 18.0148C18.7993 17.9711 18.6705 17.8705 18.585 17.713L17.5 15.7996ZM29.1666 15.7996L28.0816 17.713C27.9951 17.8714 27.8658 17.9721 27.6937 18.0148C27.5216 18.0586 27.3573 18.0372 27.2008 17.9507C27.0433 17.8632 26.9432 17.7334 26.9004 17.5613C26.8576 17.3873 26.8809 17.223 26.9704 17.0684L28.0554 15.155H25.8854C25.6987 15.155 25.5446 15.0943 25.4231 14.9727C25.3016 14.8512 25.2408 14.6976 25.2408 14.5119C25.2408 14.3262 25.3016 14.1721 25.4231 14.0496C25.5446 13.9271 25.6987 13.8659 25.8854 13.8659H28.0568L26.9704 12.0255C26.8809 11.8699 26.8576 11.7056 26.9004 11.5325C26.9432 11.3595 27.0433 11.2297 27.2008 11.1432C27.3583 11.0566 27.5226 11.0352 27.6937 11.079C27.8648 11.1227 27.9941 11.2234 28.0816 11.3809L29.1666 13.2198L30.2516 11.3809C30.3382 11.2224 30.4675 11.1213 30.6396 11.0775C30.8116 11.0338 30.9759 11.0557 31.1325 11.1432C31.289 11.2307 31.3891 11.3605 31.4329 11.5325C31.4766 11.7046 31.4533 11.8689 31.3629 12.0255L30.2779 13.8659H32.4479C32.6346 13.8659 32.7887 13.9266 32.9102 14.0482C33.0317 14.1697 33.0925 14.3233 33.0925 14.509C33.0925 14.6947 33.0317 14.8488 32.9102 14.9713C32.7887 15.0938 32.6346 15.155 32.4479 15.155H30.2764L31.3629 17.0684C31.4523 17.2239 31.4757 17.3882 31.4329 17.5613C31.3901 17.7343 31.29 17.8641 31.1325 17.9507C30.975 18.0372 30.8107 18.0586 30.6396 18.0148C30.4684 17.9711 30.3391 17.8705 30.2516 17.713L29.1666 15.7996Z"
        fill="black" />
</svg>
