<svg width="31" height="30" viewBox="0 0 31 30" fill="none" xmlns="http://www.w3.org/2000/svg">
    <path
        d="M6.10334 26.2501C5.52751 26.2501 5.04709 26.0576 4.66209 25.6726C4.27709 25.2876 4.08418 24.8072 4.08334 24.2313V10.7688C4.08334 10.1938 4.27626 9.71383 4.66209 9.32883C5.04793 8.94383 5.52793 8.75091 6.10209 8.75008H9.79959L11.8746 6.46383C11.9354 6.40299 12.0038 6.35716 12.0796 6.32633C12.1563 6.29633 12.2375 6.28133 12.3233 6.28133C12.5933 6.28133 12.7825 6.40216 12.8908 6.64383C13 6.88466 12.9633 7.10924 12.7808 7.31758L10.9533 9.33133C10.7725 9.55466 10.5488 9.72174 10.2821 9.83258C10.0154 9.94424 9.73668 10.0001 9.44584 10.0001H6.10334C5.87834 10.0001 5.69376 10.0722 5.54959 10.2163C5.40543 10.3605 5.33334 10.5451 5.33334 10.7701V24.2313C5.33334 24.4555 5.40543 24.6397 5.54959 24.7838C5.69376 24.928 5.87834 25.0001 6.10334 25.0001H24.5646C24.7888 25.0001 24.9729 24.928 25.1171 24.7838C25.2613 24.6397 25.3333 24.4555 25.3333 24.2313V20.3601C25.3333 20.1826 25.3929 20.0342 25.5121 19.9151C25.6313 19.7959 25.78 19.7359 25.9583 19.7351C26.1367 19.7342 26.2854 19.7942 26.4046 19.9151C26.5238 20.0359 26.5833 20.1842 26.5833 20.3601V24.2301C26.5833 24.8059 26.3908 25.2863 26.0058 25.6713C25.6208 26.0563 25.1404 26.2492 24.5646 26.2501H6.10334ZM15.3333 22.1626C16.1767 22.1626 16.9542 21.9555 17.6658 21.5413C18.3783 21.1255 18.9413 20.5605 19.3546 19.8463C19.4713 19.6663 19.5196 19.4847 19.4996 19.3013C19.4796 19.118 19.3896 18.968 19.2296 18.8513C19.0821 18.7497 18.9208 18.7188 18.7458 18.7588C18.5708 18.798 18.4429 18.8992 18.3621 19.0626C18.0704 19.6342 17.6538 20.0859 17.1121 20.4176C16.5704 20.7484 15.9775 20.9138 15.3333 20.9138C14.3783 20.9138 13.5708 20.5834 12.9108 19.9226C12.2508 19.2617 11.9204 18.4542 11.9196 17.5001C11.9196 17.0801 11.9883 16.6855 12.1258 16.3163C12.2625 15.9472 12.4625 15.6134 12.7258 15.3151C12.9892 15.0167 13.2875 14.7688 13.6208 14.5713C13.9542 14.3738 14.3288 14.2447 14.7446 14.1838C14.9079 14.1288 15.0288 14.028 15.1071 13.8813C15.1854 13.7347 15.1967 13.5797 15.1408 13.4163C15.085 13.253 14.9863 13.1313 14.8446 13.0513C14.7004 12.9705 14.5467 12.9576 14.3833 13.0126C13.845 13.1184 13.3508 13.3055 12.9008 13.5738C12.4508 13.8422 12.0579 14.1767 11.7221 14.5776C11.3863 14.9784 11.1271 15.4272 10.9446 15.9238C10.7621 16.4205 10.6708 16.9459 10.6708 17.5001C10.6708 18.7901 11.1254 19.8901 12.0346 20.8001C12.9446 21.7084 14.0446 22.1626 15.3346 22.1626M22.8333 0.675078C21.03 0.675078 19.4417 1.30758 18.0683 2.57258C16.695 3.83758 16.0075 5.54299 16.0058 7.68883C16.0058 9.69883 16.6954 11.473 18.0746 13.0113C19.4538 14.5497 20.8071 15.9463 22.1346 17.2013C22.2429 17.2888 22.3571 17.3547 22.4771 17.3988C22.5963 17.443 22.715 17.4651 22.8333 17.4651C22.9683 17.4651 23.0925 17.443 23.2058 17.3988C23.32 17.3547 23.4292 17.2884 23.5333 17.2001C24.86 15.9459 26.2129 14.5497 27.5921 13.0113C28.9713 11.473 29.6608 9.69883 29.6608 7.68883C29.6608 5.54299 28.9733 3.83758 27.5983 2.57258C26.2233 1.30758 24.635 0.674661 22.8333 0.673828M22.8333 16.1988C20.41 13.9338 18.875 12.1963 18.2283 10.9863C17.58 9.77633 17.2558 8.68466 17.2558 7.71133C17.2558 5.81549 17.8421 4.38091 19.0146 3.40758C20.1871 2.43424 21.46 1.94758 22.8333 1.94758C24.2067 1.94758 25.4796 2.43424 26.6521 3.40758C27.8246 4.38091 28.4104 5.81549 28.4096 7.71133C28.4096 8.68466 28.0858 9.77633 27.4383 10.9863C26.7917 12.1963 25.2567 13.9338 22.8333 16.1988ZM20.9771 10.5288L21.6846 8.23883L19.8046 6.73133H22.0946L22.8333 4.47133L23.5708 6.73133H25.8621L24.0058 8.23758L24.7133 10.5276L22.8333 9.11633L20.9771 10.5288Z"
        fill="black" />
</svg>
