<svg width="24" height="24" viewBox="0 0 24 24" fill="none" xmlns="http://www.w3.org/2000/svg">
    <path
        d="M12.1875 4.78125C12.1875 4.50775 12.0788 4.24544 11.8855 4.05205C11.6921 3.85865 11.4298 3.75 11.1562 3.75C10.8827 3.75 10.6204 3.85865 10.427 4.05205C10.2336 4.24544 10.125 4.50775 10.125 4.78125V10.625H4.28125C4.00775 10.625 3.74544 10.7336 3.55205 10.927C3.35865 11.1204 3.25 11.3827 3.25 11.6562C3.25 11.9298 3.35865 12.1921 3.55205 12.3855C3.74544 12.5788 4.00775 12.6875 4.28125 12.6875H10.125V18.5312C10.125 18.8048 10.2336 19.0671 10.427 19.2605C10.6204 19.4538 10.8827 19.5625 11.1562 19.5625C11.4298 19.5625 11.6921 19.4538 11.8855 19.2605C12.0788 19.0671 12.1875 18.8048 12.1875 18.5312V12.6875H18.0312C18.3048 12.6875 18.5671 12.5788 18.7605 12.3855C18.9538 12.1921 19.0625 11.9298 19.0625 11.6562C19.0625 11.3827 18.9538 11.1204 18.7605 10.927C18.5671 10.7336 18.3048 10.625 18.0312 10.625H12.1875V4.78125Z"
        fill="#121F00" />
</svg>
