<svg width="46" height="46" viewBox="0 0 46 46" fill="none" xmlns="http://www.w3.org/2000/svg">
<path d="M27.2856 10.143C27.2856 9.14635 27.2856 8.64802 27.1764 8.23977C27.0299 7.69493 26.7427 7.19816 26.3438 6.79921C25.9448 6.40026 25.4481 6.11314 24.9032 5.9666C23.8261 5.6791 22.1739 5.6791 21.0967 5.9666C20.5515 6.11285 20.0544 6.39984 19.6551 6.79881C19.2558 7.19778 18.9684 7.6947 18.8216 8.23977C18.7124 8.64802 18.7124 9.14635 18.7124 10.143C18.7124 12.1632 18.7124 17.4589 18.0837 18.0857C17.457 18.7144 12.1612 18.7144 10.1411 18.7144C9.1444 18.7144 8.64606 18.7144 8.23781 18.8236C7.69298 18.9701 7.19621 19.2573 6.79726 19.6562C6.39831 20.0552 6.11119 20.5519 5.96465 21.0968C5.67715 22.1739 5.67715 23.828 5.96465 24.9033C6.26173 26.013 7.12806 26.8774 8.23781 27.1764C8.64606 27.2857 9.1444 27.2857 10.1411 27.2857C12.1612 27.2857 17.457 27.2857 18.0837 27.9124C18.7124 28.5411 18.7124 29.5512 18.7124 31.5733C18.7124 32.568 18.7124 37.352 18.8216 37.7603C18.9682 38.3051 19.2553 38.8019 19.6543 39.2008C20.0532 39.5998 20.55 39.8869 21.0948 40.0334C22.172 40.3209 23.8261 40.3209 24.9013 40.0334C25.4462 39.8869 25.9429 39.5998 26.3419 39.2008C26.7408 38.8019 27.0279 38.3051 27.1745 37.7603C27.2837 37.352 27.2837 32.568 27.2837 31.5714C27.2837 29.5512 27.2837 28.5411 27.9105 27.9124C28.5391 27.2857 33.8349 27.2857 35.8551 27.2857C36.8517 27.2857 37.3501 27.2857 37.7583 27.1764C38.3032 27.0299 38.7999 26.7428 39.1989 26.3438C39.5978 25.9449 39.8849 25.4481 40.0315 24.9033C40.319 23.8261 40.319 22.1739 40.0315 21.0968C39.8849 20.5519 39.5978 20.0552 39.1989 19.6562C38.7999 19.2573 38.3032 18.9701 37.7583 18.8236C37.3501 18.7144 36.8517 18.7144 35.8551 18.7144C33.8349 18.7144 28.5391 18.7144 27.9124 18.0857C27.2837 17.4589 27.2837 12.1632 27.2837 10.143" stroke="#211A13" stroke-width="1.5" stroke-linecap="round" stroke-linejoin="round"/>
</svg>
