<svg width="24" height="25" viewBox="0 0 24 25" fill="none" xmlns="http://www.w3.org/2000/svg">
    <path
        d="M3.989 3.86301C4.05236 3.48144 4.24934 3.13483 4.54474 2.88514C4.84014 2.63544 5.21471 2.49893 5.6015 2.50001C6.0035 2.50001 6.3715 2.64401 6.6575 2.88251C6.96774 2.63477 7.35299 2.49989 7.75 2.50001C8.163 2.50001 8.543 2.64301 8.8425 2.88251C9.13851 2.63469 9.51245 2.49924 9.8985 2.50001C10.2853 2.49893 10.6599 2.63544 10.9553 2.88514C11.2507 3.13483 11.4476 3.48144 11.511 3.86301C11.695 4.98901 12 7.06401 12 8.50001C12.0005 9.17537 11.8399 9.84112 11.5314 10.4419C11.223 11.0427 10.7756 11.5613 10.2265 11.9545C9.9065 12.1845 9.75 12.462 9.75 12.6995C9.75 12.7185 9.7505 12.7315 9.7515 12.7465C9.7955 13.2945 10.25 18.984 10.25 20C10.25 20.663 9.98661 21.2989 9.51777 21.7678C9.04893 22.2366 8.41304 22.5 7.75 22.5C7.08696 22.5 6.45108 22.2366 5.98223 21.7678C5.51339 21.2989 5.25 20.663 5.25 20C5.25 18.984 5.7045 13.2945 5.748 12.7465C5.74941 12.7309 5.75007 12.7152 5.75 12.6995C5.75 12.462 5.594 12.1845 5.2735 11.9545C4.7244 11.5613 4.27705 11.0427 3.9686 10.4419C3.66014 9.84112 3.4995 9.17537 3.5 8.50001C3.5 7.06401 3.805 4.98901 3.989 3.86301ZM9.5 8.87501C9.5 9.04077 9.43415 9.19974 9.31694 9.31695C9.19973 9.43416 9.04076 9.50001 8.875 9.50001C8.70924 9.50001 8.55027 9.43416 8.43306 9.31695C8.31585 9.19974 8.25 9.04077 8.25 8.87501V4.25001C8.25 4.1174 8.19732 3.99022 8.10355 3.89645C8.00979 3.80268 7.88261 3.75001 7.75 3.75001C7.61739 3.75001 7.49022 3.80268 7.39645 3.89645C7.30268 3.99022 7.25 4.1174 7.25 4.25001V8.87501C7.25 9.04077 7.18415 9.19974 7.06694 9.31695C6.94973 9.43416 6.79076 9.50001 6.625 9.50001C6.45924 9.50001 6.30027 9.43416 6.18306 9.31695C6.06585 9.19974 6 9.04077 6 8.87501V4.14851C6 4.04282 5.95802 3.94146 5.88328 3.86672C5.80855 3.79199 5.70719 3.75001 5.6015 3.75001C5.4075 3.75001 5.2515 3.88651 5.2225 4.06501C5.0375 5.19851 4.75 7.17951 4.75 8.50001C4.74951 8.9769 4.86291 9.44702 5.08076 9.87125C5.29862 10.2955 5.61463 10.6615 6.0025 10.939C6.5125 11.305 7 11.9155 7 12.699C7 12.748 6.9985 12.794 6.9945 12.8465C6.9465 13.44 6.5 19.05 6.5 20C6.5 20.3315 6.6317 20.6495 6.86612 20.8839C7.10054 21.1183 7.41848 21.25 7.75 21.25C8.08152 21.25 8.39946 21.1183 8.63388 20.8839C8.8683 20.6495 9 20.3315 9 20C9 19.05 8.5535 13.44 8.506 12.8465C8.5022 12.7976 8.5002 12.7486 8.5 12.6995C8.5 11.9155 8.9875 11.3045 9.4975 10.939C9.88538 10.6615 10.2014 10.2955 10.4192 9.87125C10.6371 9.44702 10.7505 8.9769 10.75 8.50001C10.75 7.17951 10.4625 5.19851 10.2775 4.06501C10.2621 3.97603 10.2154 3.89546 10.146 3.83774C10.0765 3.78002 9.9888 3.74891 9.8985 3.75001C9.79281 3.75001 9.69145 3.79199 9.61672 3.86672C9.54199 3.94146 9.5 4.04282 9.5 4.14851V8.87501ZM18.25 3.76601V11.875C18.25 12.17 18.344 13.54 18.4475 15.0425L18.4545 15.1445C18.5945 17.1775 18.75 19.4455 18.75 20C18.75 20.3315 18.6183 20.6495 18.3839 20.8839C18.1495 21.1183 17.8315 21.25 17.5 21.25C17.1685 21.25 16.8505 21.1183 16.6161 20.8839C16.3817 20.6495 16.25 20.3315 16.25 20C16.25 19.509 16.3725 17.507 16.4985 15.59C16.5724 14.4682 16.6486 13.3465 16.727 12.225L16.7485 11.919C16.7545 11.8334 16.7429 11.7475 16.7143 11.6667C16.6857 11.5858 16.6408 11.5116 16.5823 11.4489C16.5238 11.3861 16.453 11.3361 16.3743 11.3019C16.2957 11.2677 16.2108 11.25 16.125 11.25H14.625C14.5255 11.25 14.4302 11.2105 14.3598 11.1402C14.2895 11.0698 14.25 10.9745 14.25 10.875V8.12501C14.25 7.02958 14.6609 5.97401 15.4015 5.1669C16.1421 4.3598 17.1586 3.8599 18.25 3.76601ZM15.455 12.5L15.4235 12.956C15.3765 13.637 15.3135 14.556 15.2515 15.508C15.1275 17.395 15 19.4555 15 20C15 20.663 15.2634 21.2989 15.7322 21.7678C16.2011 22.2366 16.837 22.5 17.5 22.5C18.163 22.5 18.7989 22.2366 19.2678 21.7678C19.7366 21.2989 20 20.663 20 20C20 19.3955 19.8425 17.103 19.706 15.124L19.7015 15.059C19.5925 13.473 19.5 12.12 19.5 11.875V3.12501C19.5 2.78001 19.22 2.50001 18.875 2.50001H18.625C15.5185 2.50001 13 5.01851 13 8.12501V10.875C13 11.306 13.1712 11.7193 13.476 12.0241C13.7807 12.3288 14.194 12.5 14.625 12.5H15.455Z"
        fill="black" />
</svg>
