<svg width="30" height="31" viewBox="0 0 30 31" fill="none" xmlns="http://www.w3.org/2000/svg">
<path d="M25.3125 16.2125V14.7781L27.1125 13.2031C27.4443 12.9106 27.662 12.5103 27.7272 12.0728C27.7924 11.6354 27.7009 11.1889 27.4687 10.8125L25.2562 7.06245C25.0918 6.7777 24.8554 6.54119 24.5708 6.37664C24.2861 6.21209 23.9632 6.12529 23.6344 6.12495C23.4306 6.12339 23.2279 6.15506 23.0344 6.2187L20.7562 6.98745C20.3634 6.72523 19.9531 6.49031 19.5281 6.28433L19.05 3.92183C18.9643 3.49021 18.7295 3.10249 18.3867 2.82655C18.0439 2.55061 17.615 2.40402 17.175 2.41245H12.7875C12.3475 2.40402 11.9186 2.55061 11.5758 2.82655C11.233 3.10249 10.9982 3.49021 10.9125 3.92183L10.4344 6.28433C10.0068 6.49119 9.59343 6.72608 9.19687 6.98745L6.96562 6.1812C6.76996 6.13023 6.56734 6.11123 6.36562 6.12495C6.03681 6.12529 5.71388 6.21209 5.42921 6.37664C5.14454 6.54119 4.90814 6.7777 4.74374 7.06245L2.53124 10.8125C2.31242 11.1884 2.2311 11.6287 2.30123 12.058C2.37135 12.4873 2.58855 12.8788 2.91562 13.1656L4.68749 14.7875V16.2218L2.91562 17.7968C2.57931 18.0856 2.35617 18.4841 2.2858 18.9218C2.21544 19.3594 2.30239 19.8078 2.53124 20.1875L4.74374 23.9375C4.90814 24.2222 5.14454 24.4587 5.42921 24.6233C5.71388 24.7878 6.03681 24.8746 6.36562 24.875C6.56938 24.8765 6.77204 24.8448 6.96562 24.7812L9.24374 24.0125C9.63653 24.2747 10.0469 24.5096 10.4719 24.7156L10.95 27.0781C11.0357 27.5097 11.2705 27.8974 11.6133 28.1734C11.9561 28.4493 12.385 28.5959 12.825 28.5875H17.25C17.69 28.5959 18.1189 28.4493 18.4617 28.1734C18.8045 27.8974 19.0393 27.5097 19.125 27.0781L19.6031 24.7156C20.0307 24.5087 20.4441 24.2738 20.8406 24.0125L23.1094 24.7812C23.3029 24.8448 23.5056 24.8765 23.7094 24.875C24.0382 24.8746 24.3611 24.7878 24.6458 24.6233C24.9304 24.4587 25.1668 24.2222 25.3312 23.9375L27.4687 20.1875C27.6876 19.8115 27.7689 19.3712 27.6988 18.9419C27.6286 18.5126 27.4114 18.1211 27.0844 17.8343L25.3125 16.2125ZM23.6344 23L20.4187 21.9125C19.6655 22.5494 18.8053 23.0477 17.8781 23.3843L17.2125 26.75H12.7875L12.1219 23.4218C11.2019 23.0758 10.3464 22.5783 9.59062 21.95L6.36562 23L4.15312 19.25L6.70312 17C6.52977 16.0295 6.52977 15.036 6.70312 14.0656L4.15312 11.75L6.36562 7.99995L9.58124 9.08745C10.3345 8.45051 11.1946 7.95217 12.1219 7.61558L12.7875 4.24995H17.2125L17.8781 7.57808C18.798 7.92412 19.6536 8.42161 20.4094 9.04995L23.6344 7.99995L25.8469 11.75L23.2969 14C23.4702 14.9704 23.4702 15.9639 23.2969 16.9343L25.8469 19.25L23.6344 23Z" fill="black"/>
<path d="M15 21.125C13.8875 21.125 12.7999 20.7951 11.8749 20.177C10.9499 19.5589 10.2289 18.6804 9.80318 17.6526C9.37744 16.6248 9.26604 15.4938 9.48309 14.4026C9.70013 13.3115 10.2359 12.3092 11.0225 11.5225C11.8092 10.7359 12.8115 10.2001 13.9026 9.98309C14.9938 9.76604 16.1248 9.87744 17.1526 10.3032C18.1804 10.7289 19.0589 11.4499 19.677 12.3749C20.2951 13.2999 20.625 14.3875 20.625 15.5C20.6325 16.2408 20.4922 16.9756 20.2121 17.6615C19.9321 18.3473 19.5181 18.9704 18.9942 19.4942C18.4704 20.0181 17.8473 20.4321 17.1615 20.7121C16.4756 20.9922 15.7408 21.1325 15 21.125ZM15 11.75C14.5044 11.7385 14.0116 11.8276 13.5514 12.0119C13.0912 12.1963 12.6732 12.4721 12.3226 12.8226C11.9721 13.1732 11.6963 13.5912 11.5119 14.0514C11.3276 14.5116 11.2385 15.0044 11.25 15.5C11.2385 15.9956 11.3276 16.4884 11.5119 16.9486C11.6963 17.4088 11.9721 17.8268 12.3226 18.1774C12.6732 18.5279 13.0912 18.8037 13.5514 18.9881C14.0116 19.1724 14.5044 19.2615 15 19.25C15.4956 19.2615 15.9884 19.1724 16.4486 18.9881C16.9088 18.8037 17.3268 18.5279 17.6774 18.1774C18.0279 17.8268 18.3037 17.4088 18.4881 16.9486C18.6724 16.4884 18.7615 15.9956 18.75 15.5C18.7615 15.0044 18.6724 14.5116 18.4881 14.0514C18.3037 13.5912 18.0279 13.1732 17.6774 12.8226C17.3268 12.4721 16.9088 12.1963 16.4486 12.0119C15.9884 11.8276 15.4956 11.7385 15 11.75Z" fill="black"/>
</svg>
