<svg width="20" height="20" viewBox="0 0 20 20" fill="none" xmlns="http://www.w3.org/2000/svg">
    <g clip-path="url(#clip0_415_4536)">
        <path
            d="M0 19.5833C0.663041 19.5833 1.29893 19.3199 1.76777 18.8511C2.23661 18.3823 2.5 17.7464 2.5 17.0833C2.5 17.7464 2.76339 18.3823 3.23223 18.8511C3.70107 19.3199 4.33696 19.5833 5 19.5833C5.66304 19.5833 6.29893 19.3199 6.76777 18.8511C7.23661 18.3823 7.5 17.7464 7.5 17.0833C7.5 17.7464 7.76339 18.3823 8.23223 18.8511C8.70107 19.3199 9.33696 19.5833 10 19.5833C10.663 19.5833 11.2989 19.3199 11.7678 18.8511C12.2366 18.3823 12.5 17.7464 12.5 17.0833C12.5 17.7464 12.7634 18.3823 13.2322 18.8511C13.7011 19.3199 14.337 19.5833 15 19.5833C15.663 19.5833 16.2989 19.3199 16.7678 18.8511C17.2366 18.3823 17.5 17.7464 17.5 17.0833C17.5 17.7464 17.7634 18.3823 18.2322 18.8511C18.7011 19.3199 19.337 19.5833 20 19.5833M4.58333 8.53083V2.91667H15.4167V8.53083M10 0V2.91667M4.58333 15.8333C4.58333 15.6883 4.48333 15.1917 4.35083 14.6033C3.9775 12.9333 3.2325 11.3717 2.22583 9.98833L2.08333 9.79167V9.58333L8.84833 6.735C9.1897 6.59119 9.48106 6.34987 9.68592 6.04125C9.89078 5.73263 10 5.37042 10 5M10 5C10 5.7575 10.4542 6.44167 11.1525 6.735L17.9167 9.58333V9.79167L17.7733 9.98833C16.7675 11.3717 16.0225 12.9333 15.6483 14.6033C15.5175 15.1908 15.4167 15.6883 15.4167 15.8333M10 5V15.8333"
            stroke="white" />
    </g>
    <defs>
        <clipPath id="clip0_415_4536">
            <rect width="20" height="20" fill="white" />
        </clipPath>
    </defs>
</svg>
