<svg width="25" height="24" viewBox="0 0 25 24" fill="none" xmlns="http://www.w3.org/2000/svg">
    <path
        d="M14.46 2.75H10.54C9.98775 2.75 9.54004 3.19772 9.54004 3.75V20.25C9.54004 20.8023 9.98775 21.25 10.54 21.25H14.46C15.0123 21.25 15.46 20.8023 15.46 20.25V3.75C15.46 3.19772 15.0123 2.75 14.46 2.75Z"
        stroke="black" stroke-linecap="round" stroke-linejoin="round" />
    <path
        d="M20.38 13.3037H16.46C15.9077 13.3037 15.46 13.7514 15.46 14.3037V20.2502C15.46 20.8025 15.9077 21.2502 16.46 21.2502H20.38C20.9322 21.2502 21.38 20.8025 21.38 20.2502V14.3037C21.38 13.7514 20.9322 13.3037 20.38 13.3037Z"
        stroke="black" stroke-linecap="round" stroke-linejoin="round" />
    <path
        d="M8.54012 7.17578H4.62012C4.06783 7.17578 3.62012 7.6235 3.62012 8.17578V20.2498C3.62012 20.8021 4.06783 21.2498 4.62012 21.2498H8.54012C9.0924 21.2498 9.54012 20.8021 9.54012 20.2498V8.17578C9.54012 7.6235 9.0924 7.17578 8.54012 7.17578Z"
        stroke="black" stroke-linecap="round" stroke-linejoin="round" />
</svg>
