<svg width="26" height="26" viewBox="0 0 26 26" fill="none" xmlns="http://www.w3.org/2000/svg">
<path d="M7.75928 6.99805H18.24V11.2523H7.75928V6.99805Z" stroke="white" stroke-linecap="round" stroke-linejoin="round"/>
<path d="M9.82905 16.6312C10.5853 16.6312 11.1984 16.0182 11.1984 15.2619C11.1984 14.5056 10.5853 13.8926 9.82905 13.8926C9.07279 13.8926 8.45972 14.5056 8.45972 15.2619C8.45972 16.0182 9.07279 16.6312 9.82905 16.6312Z" stroke="white" stroke-linecap="round" stroke-linejoin="round"/>
<path d="M16.1899 16.6312C16.9462 16.6312 17.5592 16.0182 17.5592 15.2619C17.5592 14.5056 16.9462 13.8926 16.1899 13.8926C15.4336 13.8926 14.8206 14.5056 14.8206 15.2619C14.8206 16.0182 15.4336 16.6312 16.1899 16.6312Z" stroke="white" stroke-linecap="round" stroke-linejoin="round"/>
<path d="M12.1057 4.51004H13.8942M16.8512 3.47762H15.9379L15.7657 3.04212C15.6879 2.8459 15.5529 2.67757 15.3783 2.55897C15.2037 2.44037 14.9975 2.37696 14.7864 2.37695H11.2135C11.0024 2.37696 10.7962 2.44037 10.6216 2.55897C10.447 2.67757 10.312 2.8459 10.2342 3.04212L10.0619 3.47708H9.1487C8.66758 3.47701 8.19116 3.57171 7.74665 3.75577C7.30214 3.93984 6.89823 4.20967 6.55801 4.54984C6.21778 4.89002 5.9479 5.29388 5.76377 5.73836C5.57964 6.18285 5.48486 6.65925 5.48486 7.14037V15.91C5.48486 16.7627 5.82362 17.5805 6.42661 18.1835C7.0296 18.7865 7.84744 19.1253 8.7002 19.1253H17.2986C18.1514 19.1253 18.9692 18.7865 19.5722 18.1835C20.1752 17.5805 20.5139 16.7627 20.5139 15.91V7.14037C20.5139 6.65925 20.4192 6.18285 20.235 5.73836C20.0509 5.29388 19.781 4.89002 19.4408 4.54984C19.1006 4.20967 18.6967 3.93984 18.2522 3.75577C17.8076 3.57171 17.3312 3.47701 16.8501 3.47708M10.1963 19.1253L6.30874 23.502M18.2406 21.9127H7.75932M16.9915 20.4702H9.0084M15.8036 19.1253L19.6912 23.502" stroke="white" stroke-linecap="round" stroke-linejoin="round"/>
</svg>
