<svg width="24" height="29" viewBox="0 0 24 29" fill="none" xmlns="http://www.w3.org/2000/svg">
    <path
        d="M0.333252 20.1917V5C0.333252 3.91222 0.64603 3.03778 1.27159 2.37667C1.89603 1.71556 2.7427 1.20889 3.81159 0.856667C4.87936 0.505556 6.12103 0.275 7.53659 0.165C8.95214 0.055 10.4399 0 11.9999 0C13.6199 0 15.1355 0.055 16.5466 0.165C17.9577 0.276111 19.1927 0.505 20.2516 0.851667C21.3105 1.20056 22.1444 1.70722 22.7533 2.37167C23.3621 3.03611 23.6666 3.91222 23.6666 5V20.1917C23.6666 21.5317 23.1999 22.6683 22.2666 23.6017C21.3344 24.5339 20.1983 25 18.8583 25L21.3583 27.5V28.3333H19.9483L16.6149 25H7.38492L4.05159 28.3333H2.64159V27.5L5.14159 25C3.80159 25 2.66492 24.5333 1.73159 23.6C0.799364 22.6689 0.333252 21.5333 0.333252 20.1933M1.99992 13.3333H11.1666V5.89667H1.99992V13.3333ZM12.8333 13.3333H21.9999V5.89667H12.8333V13.3333ZM6.15992 21.025C6.69325 21.025 7.1377 20.8506 7.49325 20.5017C7.84881 20.1517 8.02659 19.7089 8.02659 19.1733C8.02659 18.6378 7.85159 18.1933 7.50159 17.84C7.15159 17.4844 6.70881 17.3067 6.17325 17.3067C5.6377 17.3067 5.19325 17.4817 4.83992 17.8317C4.48436 18.1817 4.30659 18.6244 4.30659 19.16C4.30659 19.6956 4.48159 20.14 4.83159 20.4933C5.18159 20.8489 5.62436 21.0267 6.15992 21.0267M17.8266 21.0267C18.3599 21.0267 18.8044 20.8517 19.1599 20.5017C19.5155 20.1517 19.6933 19.7089 19.6933 19.1733C19.6933 18.6378 19.5183 18.1933 19.1683 17.84C18.8183 17.4844 18.3755 17.3067 17.8399 17.3067C17.3044 17.3067 16.8599 17.4817 16.5066 17.8317C16.151 18.1817 15.9733 18.6244 15.9733 19.16C15.9733 19.6956 16.1483 20.14 16.4983 20.4933C16.8483 20.8489 17.291 21.0267 17.8266 21.0267Z"
        fill="#1E385E" />
</svg>
