<svg width="24" height="28" viewBox="0 0 24 28" fill="none" xmlns="http://www.w3.org/2000/svg">
    <g clip-path="url(#clip0_96_392)">
        <path
            d="M21.1 3.6H19.8V2.3C19.8 1.52 19.28 1 18.5 1C17.72 1 17.2 1.52 17.2 2.3V3.6H6.8V2.3C6.8 1.52 6.28 1 5.5 1C4.72 1 4.2 1.52 4.2 2.3V3.6H2.9C0.69 3.6 -1 5.29 -1 7.5V8.8H25V7.5C25 5.29 23.31 3.6 21.1 3.6ZM-1 23.1C-1 25.31 0.69 27 2.9 27H21.1C23.31 27 25 25.31 25 23.1V11.4H-1V23.1ZM18.5 14C19.28 14 19.8 14.52 19.8 15.3C19.8 16.08 19.28 16.6 18.5 16.6C17.72 16.6 17.2 16.08 17.2 15.3C17.2 14.52 17.72 14 18.5 14ZM18.5 19.2C19.28 19.2 19.8 19.72 19.8 20.5C19.8 21.28 19.28 21.8 18.5 21.8C17.72 21.8 17.2 21.28 17.2 20.5C17.2 19.72 17.72 19.2 18.5 19.2ZM12 14C12.78 14 13.3 14.52 13.3 15.3C13.3 16.08 12.78 16.6 12 16.6C11.22 16.6 10.7 16.08 10.7 15.3C10.7 14.52 11.22 14 12 14ZM12 19.2C12.78 19.2 13.3 19.72 13.3 20.5C13.3 21.28 12.78 21.8 12 21.8C11.22 21.8 10.7 21.28 10.7 20.5C10.7 19.72 11.22 19.2 12 19.2ZM5.5 14C6.28 14 6.8 14.52 6.8 15.3C6.8 16.08 6.28 16.6 5.5 16.6C4.72 16.6 4.2 16.08 4.2 15.3C4.2 14.52 4.72 14 5.5 14ZM5.5 19.2C6.28 19.2 6.8 19.72 6.8 20.5C6.8 21.28 6.28 21.8 5.5 21.8C4.72 21.8 4.2 21.28 4.2 20.5C4.2 19.72 4.72 19.2 5.5 19.2Z"
            fill="#1E385E" />
    </g>
    <defs>
        <clipPath id="clip0_96_392">
            <rect width="24" height="28" fill="white" />
        </clipPath>
    </defs>
</svg>
