<svg width="30" height="27" viewBox="0 0 30 27" fill="none" xmlns="http://www.w3.org/2000/svg">
    <path
        d="M3.33333 10.3333L5.83333 2.83325H24.1667L26.6667 10.3333M24.1667 18.6666C23.5036 18.6666 22.8677 18.4032 22.3989 17.9344C21.9301 17.4655 21.6667 16.8296 21.6667 16.1666C21.6667 15.5035 21.9301 14.8677 22.3989 14.3988C22.8677 13.93 23.5036 13.6666 24.1667 13.6666C24.8297 13.6666 25.4656 13.93 25.9344 14.3988C26.4033 14.8677 26.6667 15.5035 26.6667 16.1666C26.6667 16.8296 26.4033 17.4655 25.9344 17.9344C25.4656 18.4032 24.8297 18.6666 24.1667 18.6666ZM5.83333 18.6666C5.17029 18.6666 4.53441 18.4032 4.06557 17.9344C3.59673 17.4655 3.33333 16.8296 3.33333 16.1666C3.33333 15.5035 3.59673 14.8677 4.06557 14.3988C4.53441 13.93 5.17029 13.6666 5.83333 13.6666C6.49637 13.6666 7.13226 13.93 7.6011 14.3988C8.06994 14.8677 8.33333 15.5035 8.33333 16.1666C8.33333 16.8296 8.06994 17.4655 7.6011 17.9344C7.13226 18.4032 6.49637 18.6666 5.83333 18.6666ZM26.5333 1.99992C26.2 1.03325 25.2667 0.333252 24.1667 0.333252H5.83333C4.73333 0.333252 3.8 1.03325 3.46667 1.99992L0 11.9999V25.3333C0 25.7753 0.175595 26.1992 0.488155 26.5118C0.800716 26.8243 1.22464 26.9999 1.66667 26.9999H3.33333C3.77536 26.9999 4.19928 26.8243 4.51184 26.5118C4.8244 26.1992 5 25.7753 5 25.3333V23.6666H25V25.3333C25 25.7753 25.1756 26.1992 25.4882 26.5118C25.8007 26.8243 26.2246 26.9999 26.6667 26.9999H28.3333C28.7754 26.9999 29.1993 26.8243 29.5118 26.5118C29.8244 26.1992 30 25.7753 30 25.3333V11.9999L26.5333 1.99992Z"
        fill="#1E385E" />
</svg>
