<svg width="22" height="22" viewBox="0 0 22 22" fill="none" xmlns="http://www.w3.org/2000/svg">
    <path
        d="M13.7067 11.2426L21.2244 3.74133C21.5536 3.41207 21.7386 2.9655 21.7386 2.49985C21.7386 2.03421 21.5536 1.58764 21.2244 1.25838C20.8952 0.929117 20.4487 0.744141 19.9831 0.744141C19.5176 0.744141 19.071 0.929117 18.7418 1.25838L11.2416 8.77718L3.74133 1.25838C3.41211 0.929117 2.9656 0.744141 2.50002 0.744141C2.03445 0.744141 1.58794 0.929117 1.25872 1.25838C0.929511 1.58764 0.744561 2.03421 0.744561 2.49985C0.744561 2.9655 0.929511 3.41207 1.25872 3.74133L8.77646 11.2426L1.25872 18.744C1.09486 18.9065 0.964794 19.0999 0.876035 19.313C0.787275 19.5261 0.741577 19.7546 0.741577 19.9854C0.741577 20.2163 0.787275 20.4448 0.876035 20.6579C0.964794 20.871 1.09486 21.0644 1.25872 21.2269C1.42125 21.3908 1.61462 21.5209 1.82767 21.6097C2.04071 21.6984 2.26923 21.7441 2.50002 21.7441C2.73082 21.7441 2.95934 21.6984 3.17238 21.6097C3.38543 21.5209 3.5788 21.3908 3.74133 21.2269L11.2416 13.7081L18.7418 21.2269C18.9044 21.3908 19.0977 21.5209 19.3108 21.6097C19.5238 21.6984 19.7523 21.7441 19.9831 21.7441C20.2139 21.7441 20.4424 21.6984 20.6555 21.6097C20.8685 21.5209 21.0619 21.3908 21.2244 21.2269C21.3883 21.0644 21.5184 20.871 21.6071 20.6579C21.6959 20.4448 21.7416 20.2163 21.7416 19.9854C21.7416 19.7546 21.6959 19.5261 21.6071 19.313C21.5184 19.0999 21.3883 18.9065 21.2244 18.744L13.7067 11.2426Z"
        fill="#1E385E" />
</svg>
