<svg width="36" height="36" viewBox="0 0 36 36" fill="none" xmlns="http://www.w3.org/2000/svg">
    <path
        d="M24.0961 15.7458H25.1416C25.8808 15.7478 26.613 15.6032 27.2959 15.3203C27.9788 15.0374 28.5987 14.6218 29.1199 14.0977L34.875 8.29688L33.3126 6.72187L27.4359 12.5986L26.2146 11.3773L32.0913 5.49984L30.4741 3.93117L24.6192 9.78539L23.4014 8.56406L29.2781 2.68664L27.7031 1.125L21.9023 6.88008C21.3781 7.40135 20.9625 8.02145 20.6796 8.70445C20.3967 9.38745 20.2521 10.1198 20.2542 10.8591V11.9039L17.2216 14.9365L3.37499 1.125C0.261554 4.98305 2.10023 12.0734 5.6053 15.5791L11.617 21.5909C13.4838 23.4577 13.8544 23.6243 15.9722 22.7721C16.4285 22.5886 16.5944 22.609 17.0198 23.0337L17.9339 23.8866C18.1399 24.0975 18.1448 24.1594 18.1448 24.563V24.9525C18.1448 26.4347 19.0926 27.2869 19.717 27.9225L27 34.875L32.0625 29.8125L21.0635 18.7784L24.0961 15.7458Z"
        fill="#1E385E" />
    <path
        d="M24.0961 15.7458H25.1416C25.8808 15.7478 26.613 15.6032 27.2959 15.3203C27.9788 15.0374 28.5987 14.6218 29.1199 14.0977L34.875 8.29688L33.3126 6.72187L27.4359 12.5986L26.2146 11.3773L32.0913 5.49984L30.4741 3.93117L24.6192 9.78539L23.4014 8.56406L29.2781 2.68664L27.7031 1.125L21.9023 6.88008C21.3781 7.40135 20.9625 8.02145 20.6796 8.70445C20.3967 9.38745 20.2521 10.1198 20.2542 10.8591V11.9039L17.2216 14.9365L3.37499 1.125C0.261554 4.98305 2.10023 12.0734 5.6053 15.5791L11.617 21.5909C13.4838 23.4577 13.8544 23.6243 15.9722 22.7721C16.4285 22.5886 16.5944 22.609 17.0198 23.0337L17.9339 23.8866C18.1399 24.0975 18.1448 24.1594 18.1448 24.563V24.9525C18.1448 26.4347 19.0926 27.2869 19.717 27.9225L27 34.875L32.0625 29.8125L21.0635 18.7784L24.0961 15.7458Z"
        fill="#1E385E" />
    <path
        d="M15.987 24.9322C13.8902 25.3618 12.6042 25.7577 10.1454 23.2988C10.106 23.2595 10.0652 23.2215 10.0259 23.1821L8.65477 21.811L1.125 29.2501L6.75 34.8751L16.875 24.7501L15.987 24.9322Z"
        fill="#1E385E" />
</svg>
