<svg width="40" height="29" viewBox="0 0 40 29" fill="none" xmlns="http://www.w3.org/2000/svg">
    <path
        d="M19.9999 19.0001L11.4285 4.71436M1.42847 21.1429C1.42847 22.8479 2.10576 24.483 3.31135 25.6886C4.51694 26.8942 6.15208 27.5715 7.85704 27.5715C9.562 27.5715 11.1971 26.8942 12.4027 25.6886C13.6083 24.483 14.2856 22.8479 14.2856 21.1429C14.2856 19.438 13.6083 17.8028 12.4027 16.5972C11.1971 15.3917 9.562 14.7144 7.85704 14.7144C6.15208 14.7144 4.51694 15.3917 3.31135 16.5972C2.10576 17.8028 1.42847 19.438 1.42847 21.1429ZM25.7142 21.1429C25.7142 22.8479 26.3915 24.483 27.5971 25.6886C28.8027 26.8942 30.4378 27.5715 32.1428 27.5715C33.8477 27.5715 35.4828 26.8942 36.6884 25.6886C37.894 24.483 38.5713 22.8479 38.5713 21.1429C38.5713 19.438 37.894 17.8028 36.6884 16.5972C35.4828 15.3917 33.8477 14.7144 32.1428 14.7144C30.4378 14.7144 28.8027 15.3917 27.5971 16.5972C26.3915 17.8028 25.7142 19.438 25.7142 21.1429Z"
        stroke="#1E385E" stroke-width="2.85714" stroke-linecap="round" stroke-linejoin="round" />
    <path
        d="M14.1512 9.25147L7.85693 21.1429L19.9998 19L28.1426 9.49719M32.1426 21.1429L25.6484 2.2229H33.1912M8.57122 4.71433H15.7141"
        stroke="#1E385E" stroke-width="2.85714" stroke-linecap="round" stroke-linejoin="round" />
</svg>
