<svg width="176" height="13" viewBox="0 0 176 13" fill="none" xmlns="http://www.w3.org/2000/svg">
    <path
        d="M1.14375 2.4C0.850417 2.4 0.597084 2.30667 0.38375 2.12C0.170417 1.90667 0.0637501 1.65333 0.0637501 1.36C0.0637501 1.06667 0.170417 0.826666 0.38375 0.64C0.597084 0.426666 0.850417 0.319999 1.14375 0.319999H10.3838C10.6771 0.319999 10.9171 0.426666 11.1038 0.64C11.3171 0.826666 11.4238 1.06667 11.4238 1.36C11.4238 1.65333 11.3171 1.90667 11.1038 2.12C10.9171 2.30667 10.6771 2.4 10.3838 2.4H1.14375ZM21.9406 2.4C21.6473 2.4 21.394 2.30667 21.1806 2.12C20.9673 1.90667 20.8606 1.65333 20.8606 1.36C20.8606 1.06667 20.9673 0.826666 21.1806 0.64C21.394 0.426666 21.6473 0.319999 21.9406 0.319999H31.1806C31.474 0.319999 31.714 0.426666 31.9006 0.64C32.114 0.826666 32.2206 1.06667 32.2206 1.36C32.2206 1.65333 32.114 1.90667 31.9006 2.12C31.714 2.30667 31.474 2.4 31.1806 2.4H21.9406ZM41.6969 12.12C41.1635 12.12 40.7235 11.9467 40.3769 11.6C40.0302 11.2533 39.8569 10.8133 39.8569 10.28C39.8569 9.74667 40.0302 9.30667 40.3769 8.96C40.7235 8.61333 41.1635 8.44 41.6969 8.44C42.2569 8.44 42.6969 8.61333 43.0169 8.96C43.3635 9.30667 43.5369 9.74667 43.5369 10.28C43.5369 10.8133 43.3635 11.2533 43.0169 11.6C42.6969 11.9467 42.2569 12.12 41.6969 12.12ZM52.2063 2.4C51.9129 2.4 51.6596 2.30667 51.4463 2.12C51.2329 1.90667 51.1263 1.65333 51.1263 1.36C51.1263 1.06667 51.2329 0.826666 51.4463 0.64C51.6596 0.426666 51.9129 0.319999 52.2063 0.319999H61.4463C61.7396 0.319999 61.9796 0.426666 62.1663 0.64C62.3796 0.826666 62.4863 1.06667 62.4863 1.36C62.4863 1.65333 62.3796 1.90667 62.1663 2.12C61.9796 2.30667 61.7396 2.4 61.4463 2.4H52.2063ZM73.0031 2.4C72.7098 2.4 72.4565 2.30667 72.2431 2.12C72.0298 1.90667 71.9231 1.65333 71.9231 1.36C71.9231 1.06667 72.0298 0.826666 72.2431 0.64C72.4565 0.426666 72.7098 0.319999 73.0031 0.319999H82.2431C82.5365 0.319999 82.7765 0.426666 82.9631 0.64C83.1765 0.826666 83.2831 1.06667 83.2831 1.36C83.2831 1.65333 83.1765 1.90667 82.9631 2.12C82.7765 2.30667 82.5365 2.4 82.2431 2.4H73.0031ZM92.7594 12.12C92.226 12.12 91.786 11.9467 91.4394 11.6C91.0927 11.2533 90.9194 10.8133 90.9194 10.28C90.9194 9.74667 91.0927 9.30667 91.4394 8.96C91.786 8.61333 92.226 8.44 92.7594 8.44C93.3194 8.44 93.7594 8.61333 94.0794 8.96C94.426 9.30667 94.5994 9.74667 94.5994 10.28C94.5994 10.8133 94.426 11.2533 94.0794 11.6C93.7594 11.9467 93.3194 12.12 92.7594 12.12ZM103.269 2.4C102.975 2.4 102.722 2.30667 102.509 2.12C102.295 1.90667 102.189 1.65333 102.189 1.36C102.189 1.06667 102.295 0.826666 102.509 0.64C102.722 0.426666 102.975 0.319999 103.269 0.319999H112.509C112.802 0.319999 113.042 0.426666 113.229 0.64C113.442 0.826666 113.549 1.06667 113.549 1.36C113.549 1.65333 113.442 1.90667 113.229 2.12C113.042 2.30667 112.802 2.4 112.509 2.4H103.269ZM124.066 2.4C123.772 2.4 123.519 2.30667 123.306 2.12C123.092 1.90667 122.986 1.65333 122.986 1.36C122.986 1.06667 123.092 0.826666 123.306 0.64C123.519 0.426666 123.772 0.319999 124.066 0.319999H133.306C133.599 0.319999 133.839 0.426666 134.026 0.64C134.239 0.826666 134.346 1.06667 134.346 1.36C134.346 1.65333 134.239 1.90667 134.026 2.12C133.839 2.30667 133.599 2.4 133.306 2.4H124.066ZM144.863 2.4C144.569 2.4 144.316 2.30667 144.103 2.12C143.889 1.90667 143.783 1.65333 143.783 1.36C143.783 1.06667 143.889 0.826666 144.103 0.64C144.316 0.426666 144.569 0.319999 144.863 0.319999H154.103C154.396 0.319999 154.636 0.426666 154.823 0.64C155.036 0.826666 155.143 1.06667 155.143 1.36C155.143 1.65333 155.036 1.90667 154.823 2.12C154.636 2.30667 154.396 2.4 154.103 2.4H144.863ZM165.659 2.4C165.366 2.4 165.113 2.30667 164.899 2.12C164.686 1.90667 164.579 1.65333 164.579 1.36C164.579 1.06667 164.686 0.826666 164.899 0.64C165.113 0.426666 165.366 0.319999 165.659 0.319999H174.899C175.193 0.319999 175.433 0.426666 175.619 0.64C175.833 0.826666 175.939 1.06667 175.939 1.36C175.939 1.65333 175.833 1.90667 175.619 2.12C175.433 2.30667 175.193 2.4 174.899 2.4H165.659Z"
        fill="#1E385E" fill-opacity="0.73" />
</svg>
