<svg width="18" height="18" viewBox="0 0 18 18" fill="none" xmlns="http://www.w3.org/2000/svg">
<g clip-path="url(#clip0_760_20053)">
<path d="M11.25 6.75032L6.74999 11.2503M6.74999 6.75032L11.25 11.2503M2.88749 6.46532C2.77802 5.97221 2.79483 5.45945 2.93636 4.97457C3.07789 4.48969 3.33955 4.0484 3.69709 3.69161C4.05463 3.33482 4.49647 3.07408 4.98165 2.93356C5.46682 2.79305 5.97962 2.77732 6.47249 2.88782C6.74377 2.46354 7.11749 2.11439 7.55921 1.87253C8.00092 1.63068 8.4964 1.50391 8.99999 1.50391C9.50358 1.50391 9.99907 1.63068 10.4408 1.87253C10.8825 2.11439 11.2562 2.46354 11.5275 2.88782C12.0211 2.77683 12.5348 2.7925 13.0207 2.93335C13.5067 3.07421 13.9491 3.33567 14.3069 3.69343C14.6646 4.05119 14.9261 4.49362 15.067 4.97957C15.2078 5.46551 15.2235 5.97919 15.1125 6.47282C15.5368 6.7441 15.8859 7.11782 16.1278 7.55953C16.3696 8.00124 16.4964 8.49673 16.4964 9.00032C16.4964 9.50391 16.3696 9.99939 16.1278 10.4411C15.8859 10.8828 15.5368 11.2565 15.1125 11.5278C15.223 12.0207 15.2073 12.5335 15.0667 13.0187C14.9262 13.5038 14.6655 13.9457 14.3087 14.3032C13.9519 14.6608 13.5106 14.9224 13.0257 15.0639C12.5409 15.2055 12.0281 15.2223 11.535 15.1128C11.2641 15.5387 10.8901 15.8894 10.4476 16.1323C10.0051 16.3752 9.50851 16.5026 9.00374 16.5026C8.49897 16.5026 8.00236 16.3752 7.5599 16.1323C7.11743 15.8894 6.74342 15.5387 6.47249 15.1128C5.97962 15.2233 5.46682 15.2076 4.98165 15.0671C4.49647 14.9266 4.05463 14.6658 3.69709 14.309C3.33955 13.9522 3.07789 13.5109 2.93636 13.0261C2.79483 12.5412 2.77802 12.0284 2.88749 11.5353C2.45996 11.2647 2.1078 10.8904 1.86378 10.4472C1.61975 10.004 1.49179 9.50627 1.49179 9.00032C1.49179 8.49436 1.61975 7.99663 1.86378 7.55341C2.1078 7.11019 2.45996 6.73588 2.88749 6.46532Z" stroke="white" stroke-width="1.5" stroke-linecap="round" stroke-linejoin="round"/>
</g>
<defs>
<clipPath id="clip0_760_20053">
<rect width="18" height="18" fill="white"/>
</clipPath>
</defs>
</svg>
