<svg width="28" height="19" viewBox="0 0 28 19" fill="none" xmlns="http://www.w3.org/2000/svg">
    <path
        d="M13.75 5.625C14.7446 5.625 15.6984 6.02009 16.4017 6.72335C17.1049 7.42661 17.5 8.38044 17.5 9.375C17.5 10.3696 17.1049 11.3234 16.4017 12.0267C15.6984 12.7299 14.7446 13.125 13.75 13.125C12.7554 13.125 11.8016 12.7299 11.0983 12.0267C10.3951 11.3234 10 10.3696 10 9.375C10 8.38044 10.3951 7.42661 11.0983 6.72335C11.8016 6.02009 12.7554 5.625 13.75 5.625ZM13.75 0C20 0 25.3375 3.8875 27.5 9.375C25.3375 14.8625 20 18.75 13.75 18.75C7.5 18.75 2.1625 14.8625 0 9.375C2.1625 3.8875 7.5 0 13.75 0ZM2.725 9.375C3.73532 11.4379 5.30413 13.1759 7.2531 14.3916C9.20206 15.6072 11.453 16.2516 13.75 16.2516C16.047 16.2516 18.2979 15.6072 20.2469 14.3916C22.1959 13.1759 23.7647 11.4379 24.775 9.375C23.7647 7.31212 22.1959 5.57407 20.2469 4.35843C18.2979 3.1428 16.047 2.49835 13.75 2.49835C11.453 2.49835 9.20206 3.1428 7.2531 4.35843C5.30413 5.57407 3.73532 7.31212 2.725 9.375Z"
        fill="#1E385E" />
</svg>
