<svg width="30" height="30" viewBox="0 0 30 30" fill="none" xmlns="http://www.w3.org/2000/svg">
    <g clip-path="url(#clip0_176_20)">
        <path fill-rule="evenodd" clip-rule="evenodd"
            d="M4.35257 4.33701C10.1909 -1.49383 19.6831 -1.43229 25.5568 4.44316C31.4336 10.3202 31.4952 19.8172 25.6553 25.6557C19.8169 31.4942 10.3202 31.4342 4.44334 25.5572C2.79029 23.911 1.54131 21.9039 0.794444 19.6937C0.0475794 17.4835 -0.176841 15.1302 0.138802 12.8186C0.180216 12.5153 0.340444 12.2408 0.584236 12.0555C0.828029 11.8703 1.13542 11.7895 1.43878 11.8309C1.74214 11.8724 2.01662 12.0326 2.20185 12.2764C2.38707 12.5202 2.46787 12.8276 2.42645 13.131C2.15852 15.0899 2.34847 17.0843 2.98138 18.9575C3.61428 20.8306 4.67291 22.5315 6.07408 23.9265C11.0663 28.9173 19.1015 28.9465 24.0245 24.0249C28.946 19.1018 28.9167 11.0663 23.9261 6.07395C18.9369 1.0862 10.9063 1.05389 5.98331 5.96933L7.13406 5.97395C7.28558 5.97465 7.43548 6.0052 7.5752 6.06384C7.71492 6.12248 7.84172 6.20807 7.94836 6.31571C8.055 6.42336 8.1394 6.55096 8.19673 6.69122C8.25406 6.83148 8.28321 6.98166 8.2825 7.13319C8.28179 7.28472 8.25125 7.43462 8.19261 7.57434C8.13397 7.71407 8.04839 7.84087 7.94074 7.94752C7.8331 8.05416 7.70551 8.13856 7.56525 8.19589C7.42499 8.25323 7.27481 8.28237 7.12329 8.28167L3.20644 8.2632C2.90229 8.26158 2.61108 8.13993 2.39616 7.92472C2.18124 7.7095 2.05998 7.41812 2.05877 7.11396L2.03877 3.20007C2.03796 3.04854 2.067 2.89834 2.12424 2.75804C2.18148 2.61774 2.26579 2.49008 2.37236 2.38237C2.47894 2.27465 2.60568 2.18898 2.74536 2.13024C2.88504 2.07151 3.03492 2.04086 3.18644 2.04006C3.33796 2.03925 3.48816 2.06829 3.62846 2.12553C3.76876 2.18277 3.89641 2.26709 4.00412 2.37366C4.11183 2.48024 4.1975 2.60698 4.25623 2.74667C4.31497 2.88635 4.34561 3.03623 4.34642 3.18776L4.35257 4.33701ZM14.9985 7.69089C15.3045 7.69089 15.598 7.81246 15.8144 8.02885C16.0308 8.24524 16.1524 8.53873 16.1524 8.84475V14.5217L19.6615 18.0295C19.7718 18.1359 19.8597 18.2631 19.9203 18.4039C19.9808 18.5446 20.0127 18.696 20.0141 18.8492C20.0155 19.0024 19.9864 19.1544 19.9284 19.2962C19.8705 19.4381 19.7849 19.5669 19.6766 19.6753C19.5683 19.7837 19.4395 19.8694 19.2978 19.9275C19.156 19.9856 19.0041 20.0149 18.8509 20.0136C18.6976 20.0124 18.5462 19.9806 18.4054 19.9202C18.2646 19.8598 18.1373 19.772 18.0308 19.6618L13.8462 15.4771V8.84629C13.8462 8.54027 13.9678 8.24678 14.1842 8.03039C14.4006 7.814 14.6941 7.69243 15.0001 7.69243"
            fill="#1E385E" />
    </g>
    <defs>
        <clipPath id="clip0_176_20">
            <rect width="30" height="30" fill="white" />
        </clipPath>
    </defs>
</svg>
