<svg width="41" height="31" viewBox="0 0 41 31" fill="none" xmlns="http://www.w3.org/2000/svg">
    <path
        d="M0.041626 30.8334V0.833374H3.67799V20.8334H18.2234V4.83337H32.7689C34.7689 4.83337 36.481 5.61671 37.9053 7.18337C39.3295 8.75004 40.0416 10.6334 40.0416 12.8334V30.8334H36.4053V24.8334H3.67799V30.8334H0.041626ZM10.9507 18.8334C9.43557 18.8334 8.14769 18.25 7.08708 17.0834C6.02647 15.9167 5.49617 14.5 5.49617 12.8334C5.49617 11.1667 6.02647 9.75004 7.08708 8.58337C8.14769 7.41671 9.43557 6.83337 10.9507 6.83337C12.4659 6.83337 13.7537 7.41671 14.8144 8.58337C15.875 9.75004 16.4053 11.1667 16.4053 12.8334C16.4053 14.5 15.875 15.9167 14.8144 17.0834C13.7537 18.25 12.4659 18.8334 10.9507 18.8334Z"
        fill="#1E385E" />
</svg>
