<svg width="25" height="27" viewBox="0 0 25 27" fill="none" xmlns="http://www.w3.org/2000/svg">
    <path
        d="M12.5 20C11.6712 20 10.8763 19.7366 10.2903 19.2678C9.70424 18.7989 9.375 18.163 9.375 17.5C9.375 16.1125 10.7656 15 12.5 15C13.3288 15 14.1237 15.2634 14.7097 15.7322C15.2958 16.2011 15.625 16.837 15.625 17.5C15.625 18.163 15.2958 18.7989 14.7097 19.2678C14.1237 19.7366 13.3288 20 12.5 20ZM21.875 23.75V11.25H3.125V23.75H21.875ZM21.875 8.75C22.7038 8.75 23.4987 9.01339 24.0847 9.48223C24.6708 9.95107 25 10.587 25 11.25V23.75C25 24.413 24.6708 25.0489 24.0847 25.5178C23.4987 25.9866 22.7038 26.25 21.875 26.25H3.125C2.2962 26.25 1.50134 25.9866 0.915291 25.5178C0.32924 25.0489 0 24.413 0 23.75V11.25C0 9.8625 1.39062 8.75 3.125 8.75H4.6875V6.25C4.6875 4.5924 5.5106 3.00269 6.97573 1.83058C8.44086 0.65848 10.428 0 12.5 0C13.526 0 14.5419 0.161661 15.4897 0.475753C16.4376 0.789845 17.2988 1.25022 18.0243 1.83058C18.7497 2.41095 19.3252 3.09994 19.7178 3.85823C20.1104 4.61651 20.3125 5.42924 20.3125 6.25V8.75H21.875ZM12.5 2.5C11.2568 2.5 10.0645 2.89509 9.18544 3.59835C8.30636 4.30161 7.8125 5.25544 7.8125 6.25V8.75H17.1875V6.25C17.1875 5.25544 16.6936 4.30161 15.8146 3.59835C14.9355 2.89509 13.7432 2.5 12.5 2.5Z"
        fill="#1E385E" />
</svg>
