<svg width="24" height="28" viewBox="0 0 24 28" fill="none" xmlns="http://www.w3.org/2000/svg">
    <path
        d="M5 22.287H19V20.6548H5V22.287ZM0 28V13.3095C0 11.2061 0.722667 9.34258 2.168 7.71902C3.612 6.09545 5.45333 4.92892 7.692 4.21943V3.51592C7.692 2.53982 8.112 1.70954 8.952 1.02507C9.792 0.340603 10.8113 -0.00108559 12.01 2.59091e-06C13.2087 2.59091e-06 14.2247 0.341692 15.058 1.02507C15.8913 1.70845 16.308 2.53873 16.308 3.51592V4.21779C18.5467 4.92838 20.388 6.09545 21.832 7.71902C23.2773 9.34258 24 11.2061 24 13.3095V28H0ZM9.692 3.74117C10.084 3.66609 10.4687 3.61004 10.846 3.57305C11.2233 3.53496 11.608 3.51592 12 3.51592C12.392 3.51592 12.7767 3.53496 13.154 3.57305C13.5313 3.61004 13.916 3.66609 14.308 3.74117V3.51592C14.308 2.98271 14.0867 2.53547 13.644 2.17419C13.2013 1.81291 12.6533 1.63228 12 1.63228C11.3467 1.63228 10.7987 1.81291 10.356 2.17419C9.91333 2.53547 9.692 2.98271 9.692 3.51592V3.74117ZM8.868 16.6361L11.996 14.7051L15.124 16.6361L13.954 13.4891L17.076 11.6707H13.226L12 8.35071L10.774 11.6707H6.924L10.05 13.4989L8.868 16.6361Z"
        fill="#1E385E" />
</svg>
