<svg width="30" height="30" viewBox="0 0 30 30" fill="none" xmlns="http://www.w3.org/2000/svg">
    <g clip-path="url(#clip0_73_80)">
        <path
            d="M15 3.75C17.0625 3.75 18.75 5.4375 18.75 7.5C18.75 9.5625 17.0625 11.25 15 11.25C12.9375 11.25 11.25 9.5625 11.25 7.5C11.25 5.4375 12.9375 3.75 15 3.75ZM15 22.5C20.0625 22.5 25.875 24.9188 26.25 26.25H3.75C4.18125 24.9 9.95625 22.5 15 22.5ZM15 0C10.8562 0 7.5 3.35625 7.5 7.5C7.5 11.6438 10.8562 15 15 15C19.1438 15 22.5 11.6438 22.5 7.5C22.5 3.35625 19.1438 0 15 0ZM15 18.75C9.99375 18.75 0 21.2625 0 26.25V30H30V26.25C30 21.2625 20.0063 18.75 15 18.75Z"
            fill="#1E385E" />
    </g>
    <defs>
        <clipPath id="clip0_73_80">
            <rect width="30" height="30" fill="white" />
        </clipPath>
    </defs>
</svg>
