<svg width="28" height="28" viewBox="0 0 28 28" fill="none" xmlns="http://www.w3.org/2000/svg">
    <mask id="mask0_96_391" style="mask-type:luminance" maskUnits="userSpaceOnUse" x="0" y="0" width="28" height="28">
        <path
            d="M2.125 10.875H25.875V24.625C25.875 24.9565 25.7433 25.2745 25.5089 25.5089C25.2745 25.7433 24.9565 25.875 24.625 25.875H3.375C3.04348 25.875 2.72554 25.7433 2.49112 25.5089C2.2567 25.2745 2.125 24.9565 2.125 24.625V10.875Z"
            fill="white" stroke="white" stroke-width="2.5" stroke-linejoin="round" />
        <path
            d="M2.125 5.25C2.125 4.91848 2.2567 4.60054 2.49112 4.36612C2.72554 4.1317 3.04348 4 3.375 4H24.625C24.9565 4 25.2745 4.1317 25.5089 4.36612C25.7433 4.60054 25.875 4.91848 25.875 5.25V10.875H2.125V5.25Z"
            stroke="white" stroke-width="2.5" stroke-linejoin="round" />
        <path d="M9 18.375L12.75 22.125L20.25 14.625" stroke="black" stroke-width="2.5" stroke-linecap="round"
            stroke-linejoin="round" />
        <path d="M9 2.125V7.125M19 2.125V7.125" stroke="white" stroke-width="2.5" stroke-linecap="round" />
    </mask>
    <g mask="url(#mask0_96_391)">
        <path d="M-1 -1H29V29H-1V-1Z" fill="#1E385E" />
    </g>
</svg>
