<svg width="24" height="24" viewBox="0 0 24 24" fill="none" xmlns="http://www.w3.org/2000/svg">
    <path
        d="M12.6875 4.78125C12.6875 4.50775 12.5788 4.24544 12.3855 4.05205C12.1921 3.85865 11.9298 3.75 11.6562 3.75C11.3827 3.75 11.1204 3.85865 10.927 4.05205C10.7336 4.24544 10.625 4.50775 10.625 4.78125V10.625H4.78125C4.50775 10.625 4.24544 10.7336 4.05205 10.927C3.85865 11.1204 3.75 11.3827 3.75 11.6562C3.75 11.9298 3.85865 12.1921 4.05205 12.3855C4.24544 12.5788 4.50775 12.6875 4.78125 12.6875H10.625V18.5312C10.625 18.8048 10.7336 19.0671 10.927 19.2605C11.1204 19.4538 11.3827 19.5625 11.6562 19.5625C11.9298 19.5625 12.1921 19.4538 12.3855 19.2605C12.5788 19.0671 12.6875 18.8048 12.6875 18.5312V12.6875H18.5312C18.8048 12.6875 19.0671 12.5788 19.2605 12.3855C19.4538 12.1921 19.5625 11.9298 19.5625 11.6562C19.5625 11.3827 19.4538 11.1204 19.2605 10.927C19.0671 10.7336 18.8048 10.625 18.5312 10.625H12.6875V4.78125Z"
        fill="#835415" />
</svg>
