<svg width="34" height="32" viewBox="0 0 34 32" fill="none" xmlns="http://www.w3.org/2000/svg">
    <path fill-rule="evenodd" clip-rule="evenodd"
        d="M20.685 26.6266C21.5514 26.1934 22.5019 25.9542 23.4701 25.9257C24.4384 25.8972 25.4013 26.0801 26.2917 26.4616L26.6483 26.6283L31.0783 28.8416C31.4589 29.0316 31.7524 29.3599 31.8987 29.7592C32.0451 30.1586 32.0332 30.5988 31.8656 30.9897C31.6979 31.3805 31.3872 31.6926 30.997 31.8618C30.6067 32.031 30.1666 32.0447 29.7667 31.8999L29.5883 31.8232L25.1567 29.6083C24.7411 29.4005 24.2867 29.2819 23.8225 29.2601C23.3584 29.2383 22.8949 29.3137 22.4617 29.4816L22.175 29.6083L19.9817 30.7066C19.1149 31.1398 18.1641 31.3788 17.1955 31.407C16.2269 31.4352 15.2638 31.2519 14.3733 30.8699L14.0183 30.7066L11.8233 29.6083C11.4077 29.4005 10.9533 29.2819 10.4892 29.2601C10.0251 29.2383 9.56156 29.3137 9.12833 29.4816L8.84166 29.6083L4.41166 31.8249C4.03108 32.0174 3.5912 32.0566 3.18257 31.9346C2.77393 31.8125 2.42763 31.5385 2.21493 31.1688C2.00224 30.7992 1.93934 30.362 2.03918 29.9474C2.13903 29.5328 2.39401 29.1722 2.75166 28.9399L2.92166 28.8416L7.35166 26.6266C8.2181 26.1934 9.16853 25.9542 10.1368 25.9257C11.1051 25.8972 12.0679 26.0801 12.9583 26.4616L13.315 26.6283L15.5083 27.7249C15.9241 27.9329 16.3788 28.0517 16.8433 28.0735C17.3077 28.0953 17.7715 28.0197 18.205 27.8516L18.49 27.7249L20.685 26.6266ZM18.6667 0.333252C19.1087 0.333252 19.5326 0.508847 19.8452 0.821407C20.1577 1.13397 20.3333 1.55789 20.3333 1.99992V4.19992L25.8817 5.12325C26.6597 5.25341 27.3663 5.65526 27.8759 6.25735C28.3856 6.85945 28.6652 7.62276 28.665 8.41159V14.1316L32.0983 15.2749C32.3718 15.3661 32.6233 15.5131 32.837 15.7065C33.0507 15.9 33.222 16.1356 33.34 16.3987C33.4579 16.6617 33.52 16.9463 33.5223 17.2346C33.5246 17.5228 33.4671 17.8084 33.3533 18.0733L29.7383 26.5066L26.6483 24.9599C25.7226 24.497 24.7017 24.256 23.6667 24.256C22.6316 24.256 21.6108 24.497 20.685 24.9599L18.49 26.0583C18.0271 26.2897 17.5167 26.4102 16.9992 26.4102C16.4816 26.4102 15.9712 26.2897 15.5083 26.0583L13.315 24.9599C12.3892 24.497 11.3684 24.256 10.3333 24.256C9.29827 24.256 8.27743 24.497 7.35166 24.9599L5.23499 26.0199L0.804994 18.2683C0.652075 18.0006 0.560444 17.7024 0.536706 17.3951C0.512967 17.0878 0.557714 16.779 0.667719 16.4911C0.777725 16.2032 0.950248 15.9433 1.17285 15.7301C1.39545 15.5169 1.66259 15.3557 1.95499 15.2583L5.33333 14.1316V8.41159C5.33316 7.62276 5.61275 6.85945 6.12238 6.25735C6.63201 5.65526 7.33865 5.25341 8.11666 5.12325L13.6667 4.19992V1.99992C13.6667 1.55789 13.8423 1.13397 14.1548 0.821407C14.4674 0.508847 14.8913 0.333252 15.3333 0.333252H18.6667ZM17 7.02325L8.66666 8.41159V13.0216L15.945 10.5949C16.6293 10.3668 17.3691 10.3668 18.0533 10.5949L25.3333 13.0216V8.41159L17 7.02325Z"
        fill="#1E385E" />
</svg>
