<svg width="30" height="30" viewBox="0 0 30 30" fill="none" xmlns="http://www.w3.org/2000/svg">
    <path
        d="M29 13.8462H27.58L24.1562 6.93174C23.9813 6.5786 23.7286 6.28509 23.4237 6.08094C23.1188 5.8768 22.7725 5.76926 22.42 5.76924H19.6775L18.1775 1.45097C18.0302 1.02224 17.7745 0.65458 17.4437 0.395803C17.1129 0.137026 16.7222 -0.00088389 16.3225 1.17419e-05H13.6775C13.2774 -0.00146388 12.8862 0.136176 12.5548 0.39499C12.2235 0.653804 11.9674 1.02179 11.82 1.45097L10.3225 5.76924H7.58C7.22748 5.76926 6.88123 5.8768 6.57632 6.08094C6.27141 6.28509 6.01869 6.5786 5.84375 6.93174L2.42 13.8462H1C0.734784 13.8462 0.48043 13.9677 0.292893 14.1841C0.105357 14.4005 0 14.694 0 15C0 15.306 0.105357 15.5995 0.292893 15.8159C0.48043 16.0323 0.734784 16.1539 1 16.1539H2V27.6923C2 28.3043 2.21071 28.8913 2.58579 29.3241C2.96086 29.7569 3.46957 30 4 30H7C7.53043 30 8.03914 29.7569 8.41421 29.3241C8.78929 28.8913 9 28.3043 9 27.6923V26.5385H21V27.6923C21 28.3043 21.2107 28.8913 21.5858 29.3241C21.9609 29.7569 22.4696 30 23 30H26C26.5304 30 27.0391 29.7569 27.4142 29.3241C27.7893 28.8913 28 28.3043 28 27.6923V16.1539H29C29.2652 16.1539 29.5196 16.0323 29.7071 15.8159C29.8946 15.5995 30 15.306 30 15C30 14.694 29.8946 14.4005 29.7071 14.1841C29.5196 13.9677 29.2652 13.8462 29 13.8462ZM9 20.7692H6C5.73478 20.7692 5.48043 20.6477 5.29289 20.4313C5.10536 20.2149 5 19.9214 5 19.6154C5 19.3094 5.10536 19.0159 5.29289 18.7995C5.48043 18.5831 5.73478 18.4615 6 18.4615H9C9.26522 18.4615 9.51957 18.5831 9.70711 18.7995C9.89464 19.0159 10 19.3094 10 19.6154C10 19.9214 9.89464 20.2149 9.70711 20.4313C9.51957 20.6477 9.26522 20.7692 9 20.7692ZM24 20.7692H21C20.7348 20.7692 20.4804 20.6477 20.2929 20.4313C20.1054 20.2149 20 19.9214 20 19.6154C20 19.3094 20.1054 19.0159 20.2929 18.7995C20.4804 18.5831 20.7348 18.4615 21 18.4615H24C24.2652 18.4615 24.5196 18.5831 24.7071 18.7995C24.8946 19.0159 25 19.3094 25 19.6154C25 19.9214 24.8946 20.2149 24.7071 20.4313C24.5196 20.6477 24.2652 20.7692 24 20.7692ZM4.72375 13.8462L7.58 8.07693H22.42L25.2763 13.8462H4.72375Z"
        fill="#1E385E" />
</svg>
