<svg width="36" height="36" viewBox="0 0 36 36" fill="none" xmlns="http://www.w3.org/2000/svg">
    <g clip-path="url(#clip0_73_243)">
        <path fill-rule="evenodd" clip-rule="evenodd"
            d="M19.5 6C19.8674 6.00005 20.222 6.13493 20.4966 6.37907C20.7711 6.62321 20.9465 6.95962 20.9895 7.3245L21 7.5C21.0004 7.88232 21.1468 8.25005 21.4093 8.52805C21.6717 8.80606 22.0304 8.97335 22.4121 8.99576C22.7938 9.01816 23.1696 8.89399 23.4627 8.6486C23.7559 8.40322 23.9443 8.05514 23.9895 7.6755L24 7.5C24 7.10218 24.158 6.72064 24.4393 6.43934C24.7206 6.15804 25.1022 6 25.5 6H28.5C29.6935 6 30.8381 6.47411 31.682 7.31802C32.5259 8.16193 33 9.30653 33 10.5V25.5C33 26.6935 32.5259 27.8381 31.682 28.682C30.8381 29.5259 29.6935 30 28.5 30H25.5C25.1326 30 24.778 29.8651 24.5034 29.6209C24.2289 29.3768 24.0535 29.0404 24.0105 28.6755L24 28.5C23.9996 28.1177 23.8532 27.75 23.5907 27.4719C23.3283 27.1939 22.9696 27.0266 22.5879 27.0042C22.2062 26.9818 21.8304 27.106 21.5373 27.3514C21.2441 27.5968 21.0557 27.9449 21.0105 28.3245L21 28.5C21 28.8978 20.842 29.2794 20.5607 29.5607C20.2794 29.842 19.8978 30 19.5 30H7.5C6.30653 30 5.16193 29.5259 4.31802 28.682C3.47411 27.8381 3 26.6935 3 25.5V10.5C3 9.30653 3.47411 8.16193 4.31802 7.31802C5.16193 6.47411 6.30653 6 7.5 6H19.5ZM22.5 19.5C22.1022 19.5 21.7206 19.658 21.4393 19.9393C21.158 20.2206 21 20.6022 21 21V22.5C21 22.8978 21.158 23.2794 21.4393 23.5607C21.7206 23.842 22.1022 24 22.5 24C22.8978 24 23.2794 23.842 23.5607 23.5607C23.842 23.2794 24 22.8978 24 22.5V21C24 20.6022 23.842 20.2206 23.5607 19.9393C23.2794 19.658 22.8978 19.5 22.5 19.5ZM22.5 12C22.1326 12 21.778 12.1349 21.5034 12.3791C21.2289 12.6232 21.0535 12.9596 21.0105 13.3245L21 13.5V15C21.0004 15.3823 21.1468 15.75 21.4093 16.0281C21.6717 16.3061 22.0304 16.4734 22.4121 16.4958C22.7938 16.5182 23.1696 16.394 23.4627 16.1486C23.7559 15.9032 23.9443 15.5551 23.9895 15.1755L24 15V13.5C24 13.1022 23.842 12.7206 23.5607 12.4393C23.2794 12.158 22.8978 12 22.5 12Z"
            fill="#1E385E" />
    </g>
    <defs>
        <clipPath id="clip0_73_243">
            <rect width="36" height="36" fill="white" />
        </clipPath>
    </defs>
</svg>
