<svg width="18" height="18" viewBox="0 0 18 18" fill="none" xmlns="http://www.w3.org/2000/svg">
<path d="M8.25075 7.5H9.75075V11.25H8.25075V7.5ZM8.25 12H9.75V13.5H8.25V12Z" fill="white"/>
<path d="M10.326 3.15002C10.065 2.65877 9.5565 2.35352 9 2.35352C8.4435 2.35352 7.935 2.65877 7.674 3.15077L2.1705 13.548C2.04866 13.7764 1.98833 14.0326 1.99543 14.2914C2.00254 14.5501 2.07682 14.8026 2.211 15.024C2.3433 15.2465 2.53145 15.4305 2.75681 15.5579C2.98217 15.6852 3.2369 15.7515 3.49575 15.75H14.5042C15.0352 15.75 15.516 15.4785 15.7897 15.024C15.9239 14.8026 15.9982 14.5501 16.0053 14.2914C16.0124 14.0326 15.9521 13.7764 15.8302 13.548L10.326 3.15002ZM3.49575 14.25L9 3.85277L14.508 14.25H3.49575Z" fill="white"/>
</svg>
